<?xml version="1.0" standalone="no"?>
<!DOCTYPE svg PUBLIC "-//W3C//DTD SVG 1.1//EN" "http://www.w3.org/Graphics/SVG/1.1/DTD/svg11.dtd" >
<svg xmlns="http://www.w3.org/2000/svg" xmlns:xlink="http://www.w3.org/1999/xlink" version="1.1">
<metadata></metadata>
<defs>
<font id="claphappymedium" horiz-adv-x="665" >
<font-face units-per-em="2048" ascent="1597" descent="-451" />
<missing-glyph horiz-adv-x="614" />
<glyph horiz-adv-x="0" />
<glyph unicode="&#xd;" horiz-adv-x="681" />
<glyph unicode=" "  horiz-adv-x="614" />
<glyph unicode="&#x09;" horiz-adv-x="614" />
<glyph unicode="&#xa0;" horiz-adv-x="614" />
<glyph unicode="!" horiz-adv-x="520" d="M187 159q-1 42 28 72.5t71.5 32t71.5 -27.5q10 -8 17 -13v-2q8 -6 10 -8q23 -16 33 -43l4 -12q0 -2 1 -5t3 -3q12 -41 -6.5 -79t-59.5 -51q-37 -12 -71.5 2.5t-50.5 47.5q-10 8 -19 18q-31 29 -32 71zM205 459q0 172 6 516q2 115 2 174q2 197 2 340q0 41 29.5 71.5 t72.5 30.5t73 -30.5t30 -71.5q0 -143 -2 -344q0 -57 -2 -174q-6 -342 -6 -512q0 -43 -30 -73t-73 -30t-72.5 30t-29.5 73z" />
<glyph unicode="&#x22;" horiz-adv-x="808" d="M109 1122q0 84 10 207q2 23 6 72q4 53 8 80q2 43 35 70.5t75 23.5t69.5 -36t23.5 -75q-2 -29 -6 -82q-6 -49 -8 -71q-8 -113 -9 -189q0 -43 -30.5 -72.5t-72.5 -29.5t-71.5 29.5t-29.5 72.5zM504 1468q-4 43 21.5 77t67.5 39t76 -20.5t38 -66.5q12 -86 14 -205v-110v-60 q0 -41 -31 -71.5t-73 -30.5t-71.5 30.5t-29.5 71.5v62v106q-2 106 -12 178z" />
<glyph unicode="#" horiz-adv-x="1429" d="M58 634q5 42 39 68.5t77 20.5q72 -8 152 -12q6 59 14 123q4 49 10 98q-119 12 -215 37q-41 12 -62.5 48t-11 77t47 62.5t77.5 10.5q80 -20 185 -32q12 135 28 335q4 41 37 69t75 24t69.5 -36t23.5 -75q-16 -197 -31 -330q70 -2 152 -2h92q25 219 17 324q-4 41 23.5 73.5 t69.5 37t74.5 -23.5t34.5 -71q10 -117 -12 -336q143 4 215 4q43 0 72.5 -29.5t29.5 -72.5t-29.5 -72.5t-72.5 -29.5q-72 0 -242 -4q-4 -37 -10 -74q-8 -57 -18 -121q141 6 241 6q43 0 73 -29.5t30 -72.5t-30 -73t-73 -30q-104 0 -276 -8q-35 -213 -39 -239v-3q0 -4 -2 -10 v-14q-2 -10 -2 -19q-4 -37 -12.5 -62.5t-22.5 -43.5q-27 -33 -67.5 -43t-76.5 11.5t-46 62.5q-12 53 20 92q0 2 2 4v12l2 15q0 18 2 28q4 29 33 199h-10q-117 -4 -209 -4q-23 -176 -49 -334q-8 -41 -42 -65.5t-76 -18.5t-66.5 41t-18.5 76q25 145 45 305q-76 4 -149 12 q-43 4 -70 38t-22 76zM530 709q78 0 177 4q27 2 53 2q14 88 24 159q5 21 7 41h-66q-92 0 -170 3q-6 -53 -12 -105.5t-13 -103.5z" />
<glyph unicode="$" horiz-adv-x="1216" d="M133 463q0 43 30 72.5t73 29.5t73 -30q27 -27 58 -62q8 -12 28.5 -36.5t38.5 -47.5l19 -20q70 -84 120 -109q8 -4 15 -6q-2 276 -10 547q-49 33 -66 45q-74 51 -117 90q-55 47 -84 92q-41 61 -45 125q-4 74 39 141q37 57 113 111q61 43 127 65q-2 121 12 216 q8 41 43 65.5t77 17t66.5 -42t16.5 -77.5q-12 -68 -10 -164q4 0 8 -2q154 -23 268 -164q27 -33 22.5 -75t-37 -68.5t-74.5 -22.5t-69 37q-51 61 -106 82q2 -37 4 -68q6 -145 12 -293q78 -53 129 -96q84 -68 135 -133q141 -188 52 -389q-43 -94 -122 -158.5t-177 -85.5v-162 q0 -43 -30 -72.5t-72 -29.5t-72.5 29.5t-30.5 72.5v156q-55 8 -105 33q-57 27 -108 74q-37 33 -82 88l-19 22q-18 23 -37.5 46.5t-27.5 31.5q-25 31 -47 53q-31 29 -31 72zM471 1165q0 -8 10 -22q14 -25 49 -53q17 -15 37 -31q-2 68 -6 137q0 25 -2 55q-12 -6 -22 -14 q-43 -31 -60 -55q-8 -10 -6 -17zM786 651q4 -195 7 -389q76 33 114 115q39 90 -28 180q-36 45 -93 94z" />
<glyph unicode="%" horiz-adv-x="1853" d="M117 1327q37 123 135 195q115 82 248 49q49 -15 69 -64q78 -45 129 -123q70 -106 62 -229q-8 -139 -113 -211q-113 -76 -278.5 -33t-233.5 170q-59 115 -18 246zM313.5 1270q-16.5 -53 3.5 -92q25 -47 103 -68q45 -12 76 -8q23 2 34 10q23 16 27 57q2 53 -31 103 q-35 55 -96 74q-23 6 -39 20q-10 -4 -18 -10q-43 -33 -59.5 -86zM503.5 -21.5q-16.5 39.5 2.5 78.5q72 170 178 377q66 127 197 363q2 6 10 18q125 231 186 348q100 193 170 350q16 39 56 54.5t79 -2t54.5 -56t-0.5 -77.5q-74 -164 -176 -363q-63 -121 -191 -352 q-8 -14 -10 -19q-127 -233 -193 -358q-102 -199 -172 -365q-18 -39 -57 -54t-78 1.5t-55.5 56zM1143 215q-80 143 26 299q80 115 205 145q23 6 47 9q41 53 107 34q61 -16 104 -40q19 -9 35 -25q16 -14 31 -29q66 -76 65 -198q0 -199 -135 -295q-115 -82 -268 -49 q-150 33 -217 149zM1315 344q0 -14 6 -27q23 -39 82 -51q66 -14 106 17q49 35 50 127q-1 39 -11 57q-88 2 -125 -6q-51 -12 -86 -64q-20 -29 -22 -53z" />
<glyph unicode="&#x26;" horiz-adv-x="1484" d="M147 365q0 18 3 53v26q0 164 122 312q63 76 168 157q-35 51 -57 101q-53 115 -16 282q16 80 53 142q43 78 110 112q127 68 265 -10q96 -55 155 -156q82 -135 19 -268q-41 -88 -162 -186q-33 -25 -78 -58q76 -86 244 -260l8 -8q59 -61 92 -94q74 78 139 162q27 35 69 40 t75 -20.5t39 -67.5t-21 -77q-76 -98 -162 -189q104 -115 162 -202q25 -37 16.5 -78t-44 -64.5t-76.5 -15.5t-66 43q-49 76 -139 176q-96 -82 -188 -135q-188 -111 -351 -94q-201 18 -333 219q-25 37 -35 84q-8 31 -11 74zM352 371q2 -39 10 -52q80 -119 183 -129 q98 -8 227 68q74 43 154 109q-33 35 -90 94q-8 8 -11 8q-174 180 -254 274q-4 5 -6 7q-88 -68 -135 -125q-76 -90 -76 -181q0 -10 -2 -30v-43zM565 1253q-20 -100 4 -153q14 -31 37 -66q43 33 72 56q84 70 104 114q16 35 -6 74q-35 57 -84 84q-39 23 -65 8q-39 -20 -62 -117 z" />
<glyph unicode="'" horiz-adv-x="440" d="M127 1243q-4 158 23 254q10 41 46.5 62.5t77.5 10.5t62.5 -48t9.5 -78q-18 -68 -14 -195q0 -27 2 -75q4 -84 4 -123q0 -41 -29.5 -72t-72.5 -31t-73 31t-30 72q0 35 -4 114q-2 49 -2 78z" />
<glyph unicode="(" horiz-adv-x="696" d="M223 680q0 289 50.5 544t140.5 429q20 39 61 51t78 -7.5t50 -60t-7 -77.5q-80 -152 -124 -383.5t-44 -495.5q-2 -262 40 -494.5t118 -386.5q20 -37 7 -77.5t-51 -59t-79 -5.5t-60 50q-88 176 -135 432t-45 541z" />
<glyph unicode=")" horiz-adv-x="659" d="M190 1612q-2 41 27 72.5t71 33.5t73.5 -26.5t33.5 -71.5q2 -55 19 -127q12 -49 39 -139q2 -4 4 -13q25 -78 35 -118q18 -70 28 -127q59 -393 47 -705q-16 -414 -164 -704q-18 -39 -58 -52.5t-78 5t-51 59.5t5 78q127 254 141 622q12 291 -45 666q-10 70 -55 217 q-4 8 -4 10q-31 98 -43 154q-23 90 -25 166z" />
<glyph unicode="*" horiz-adv-x="1116" d="M213 1453q10 42 46 64.5t77 12.5q88 -20 133 -33q16 -4 33 -10q4 96 24 162q14 41 51 60.5t78 6t60.5 -51.5t7.5 -77q-14 -43 -16 -114v-9q94 25 186 56q39 12 77 -6.5t52 -59.5t-5.5 -79t-60.5 -50q-78 -27 -161 -49q61 -96 98 -141q27 -33 21.5 -76t-38 -68.5 t-74.5 -21.5t-69 37q-45 55 -112 161q-70 -100 -97 -155q-20 -37 -60 -50.5t-78 5t-51 59.5t5 78q35 70 115 184q-18 6 -41 12q-39 10 -123 29q-43 10 -65.5 46t-12.5 78z" />
<glyph unicode="+" horiz-adv-x="1261" d="M70.5 865q7.5 42 42 66.5t75.5 18.5q135 -25 318 -30q-2 76 0 143q6 139 35 248q12 41 49 61.5t78 9t61 -48.5t10 -78q-35 -127 -28 -340q59 0 180 3h178q43 0 72.5 -30t29.5 -72t-29.5 -72.5t-72.5 -30.5h-176q-115 -2 -170 -2v-23q16 -205 16 -297q0 -43 -29.5 -72.5 t-72.5 -29.5t-72.5 29.5t-29.5 72.5q0 84 -15 283q-2 23 -4 41q-207 6 -362 33q-41 8 -66 41.5t-17.5 75.5z" />
<glyph unicode="," horiz-adv-x="573" d="M101 -206q-5 42 22 75q47 59 98 207q4 12 10 28q2 8 9 27q29 84 49 129q16 39 56 54.5t79 -1t54 -56.5t-1 -79q-16 -37 -43 -112l-8 -29q-6 -16 -10 -27q-29 -84 -54 -137q-35 -78 -79 -133q-27 -33 -69 -37t-75 22.5t-38 68.5z" />
<glyph unicode="-" d="M26.5 536q6.5 42 40 68.5t74.5 20.5q68 -8 174 -9q20 2 60 2q66 2 100 3q41 0 72 -31t31 -73t-31 -71.5t-72 -29.5q-31 0 -96 -2q-39 0 -60 -2q-123 0 -204 10q-41 4 -68 38t-20.5 76z" />
<glyph unicode="." horiz-adv-x="528" d="M186 113q-8 35 7 75q10 27 30 56q23 33 62.5 39.5t74.5 -13.5q33 -10 54 -41q49 -74 8 -145q-35 -61 -109 -66q-39 -4 -71 17q-43 27 -56 78z" />
<glyph unicode="/" horiz-adv-x="1114" d="M10 -250q82 242 209 535q76 176 236 520l10 20q127 270 190 414q102 231 172 418q14 39 53.5 57.5t79 3t57 -54.5t3.5 -78q-74 -193 -178 -428q-63 -145 -193 -420q-2 -6 -8 -20q-160 -340 -235 -514q-123 -285 -201 -518q-12 -39 -50 -58.5t-79 -6.5t-59.5 51t-6.5 79z " />
<glyph unicode="0" horiz-adv-x="1253" d="M88 825q25 301 191 508q193 244 485 230q37 -2 64.5 -26.5t31.5 -61.5q16 -8 31 -21q90 -68 153 -186q115 -211 121 -506q6 -297 -102 -502q-63 -119 -158 -182q-106 -72 -239 -64q-152 8 -272 82t-195 201q-135 223 -111 528zM292.5 808.5q-18.5 -239.5 82.5 -407.5 q102 -170 303 -182q127 -8 203 135q84 160 78.5 405t-95.5 412q-84 156 -205 156q-25 0 -45 10q-100 -35 -176 -131q-127 -158 -145.5 -397.5z" />
<glyph unicode="1" horiz-adv-x="878" d="M313 1439q0 42 31 71.5t72 29.5q0 2 6 2h22q2 2 29 4t33 2q16 2 31 2q57 4 90 6h41q12 -2 22 -4t21 -6q25 -10 41 -28q20 -23 26 -56q4 -16 4 -35q2 -25 0 -59q-2 -12 -2 -29l-2 -6v-12v-8q-2 -4 -2 -8q0 -104 2 -224q0 -131 4 -391q6 -412 6 -616q0 -43 -29.5 -73 t-72.5 -30t-72.5 30t-29.5 73q0 203 -6 612q-4 262 -5 393q-2 121 -2 226q0 8 2 26q0 5 2 17q-12 0 -22 -2q-14 0 -29 -3q-8 0 -34.5 -2t-28.5 -2q-35 -4 -45 -4q-41 0 -72 31t-31 73z" />
<glyph unicode="2" horiz-adv-x="1193" d="M113 133q2 12 8 23q4 8 10 18t16 23q14 18 41 51q0 2 2 4q8 10 21 22q2 6 8 12.5t8 8.5q8 10 13 16l4 4q41 57 118 146q6 6 63.5 71.5t74.5 83.5q170 195 239 324q88 170 62 301q0 6 -2 12q-12 51 -64 74q-59 27 -147 12q-86 -12 -152.5 -55t-79.5 -92q-8 -41 -45 -62.5 t-77.5 -12.5t-63 46t-12.5 78q31 123 155 209q109 74 244 92q147 23 260 -29q143 -61 180 -210q2 -10 4 -21q43 -203 -81 -438q-80 -152 -267 -363q-14 -18 -72.5 -83.5t-62.5 -71.5q-72 -80 -106 -129h30h15l10 2h18h256q94 2 144 2h116q43 0 73 -30t30 -72t-30 -72.5 t-73 -30.5h-116h-142q-172 -2 -258 -2h-14l-12 -2h-13h-96q-61 0 -98 4q-29 4 -47 8q-16 4 -29 10q-31 14 -47 39q-25 37 -16 80z" />
<glyph unicode="3" horiz-adv-x="1130" d="M129 268q-12 41 6.5 79t59.5 51.5t78.5 -6t50.5 -60.5q23 -66 122 -123q106 -61 211 0q106 63 158 197q45 125 0 200q-23 35 -65 53q-59 25 -156 19h-6q-41 0 -71 27.5t-32 66.5v8q0 41 28 70t67 33q96 6 155 41q47 27 68 69q43 88 -15 189q-55 104 -161 110 q-59 4 -127 -26q-84 -41 -168 -133q-29 -31 -72 -33t-73.5 26.5t-33 70.5t26.5 75q225 242 461 225q104 -8 190.5 -65.5t137.5 -149.5q49 -90 54 -189.5t-36 -189.5q-29 -57 -76 -102q47 -37 78 -88q98 -160 17 -379q-35 -94 -99.5 -174t-146.5 -127q-98 -57 -203.5 -59.5 t-210.5 57.5q-70 39 -123 94q-68 68 -94 143z" />
<glyph unicode="4" horiz-adv-x="1267" d="M119 373q2 12 6 24q4 10 10 19q6 10 17 20q12 14 32 35q0 2 2 4l29 29q4 6 6 6l4 4v2q2 0 2 2q102 113 207 277q68 106 182 313q4 6 9 16q4 4 6 8.5t4 8.5q78 141 123 217q72 119 135 211q23 35 64.5 42t76.5 -16q27 -20 38 -49.5t3 -60.5q0 -367 -37 -973q-2 -35 0 -78 h39q43 0 73 -29.5t30 -71.5t-30 -73t-73 -31h-35q2 -25 0 -49q0 -80 -12 -143q-6 -43 -41 -67.5t-76 -17.5t-66.5 42t-17.5 76q10 63 9 155q-45 0 -72 -2q-305 -6 -494 21h-8h-16q-20 0 -37 4q-18 2 -35 10q-39 18 -53 59q-10 27 -4 56zM426 432q127 -8 334 -4q27 2 74 2 q-2 49 2 94q20 373 28 609q-20 -37 -51 -93q0 -2 -4 -8l-2 -2v-2l-2 -4q-6 -10 -10 -16q-117 -211 -189 -322q-90 -145 -180 -254z" />
<glyph unicode="5" horiz-adv-x="1230" d="M122 308q13 40 51 59.5t78 6t58 -51.5q57 -111 152 -134q88 -23 190 33q111 55 178 164q72 113 62 231q-6 84 -60 142q-55 59 -104 82q-39 16 -82 12q-76 -8 -244 -113q0 -2 -2 -3t-4 -3q-2 0 -2 -2q-4 -2 -8 -6l-12 -8q-20 -12 -39 -21q-20 -6 -41 -6q-41 0 -72 27 q-27 23 -33 57q-2 10 -2 23v18q2 8 4.5 19.5t6.5 23.5q14 55 135 344q53 127 90 209q20 47 35 74q8 18 14 28q16 27 37 39q20 16 49 21q14 4 31 4q27 2 65 2q61 -2 160 -8q37 -4 76 -6q18 -2 56 -6.5t68.5 -6.5t33.5 -2q43 -4 70.5 -36.5t24.5 -74.5t-36 -69.5t-74 -23.5 q-4 0 -35.5 3t-69.5 6t-55 5q-41 4 -73 6q-94 6 -150 8h-18q-10 -20 -23 -47q-37 -80 -88 -205q-23 -53 -45 -108q78 33 148 41q195 23 360 -160q100 -109 113 -262q14 -186 -92 -357q-98 -156 -256 -237q-172 -90 -336 -49q-186 45 -285 241q-18 37 -5 77z" />
<glyph unicode="6" horiz-adv-x="1210" d="M193 430q-6 188 129 457q74 147 188 319q66 96 147 205q29 37 62 82q8 8 28.5 34.5t20.5 28.5q27 33 69 38t75.5 -20.5t39 -67t-19.5 -74.5q-2 -2 -22.5 -29t-28.5 -35q-33 -45 -60 -80q-78 -104 -141 -196q-41 -61 -76 -117q272 -2 416 -180q129 -160 94 -373 q-14 -102 -67.5 -187t-135.5 -137q-190 -123 -446 -30q-129 47 -197.5 140t-74.5 222zM397 438q4 -68 36 -110.5t102 -67.5q160 -57 266 10q92 59 112 183q18 125 -53 215q-84 102 -260 102h-2q-6 -2 -16 -4q-20 -6 -41 -14q-17 -9 -27 -17q-20 -35 -59 -47 q-59 -150 -58 -250z" />
<glyph unicode="7" horiz-adv-x="1335" d="M78 1439q-6 42 18.5 75.5t67.5 39.5q125 20 508 45q190 12 309 13q72 2 115 -2q29 0 47 -4q35 -6 57 -23q33 -37 39 -47t6 -35q0 -23 -4 -31q-2 -10 -6 -18l-4 -8t-6 -8t-11 -15q-10 -16 -32 -45q-31 -41 -101 -135q-84 -115 -108 -145q-6 -8 -30.5 -43t-27.5 -37 q-39 -53 -69 -94q-90 -123 -160 -224q-35 -49 -65 -94q-215 -317 -259 -446q-14 -41 -52 -59.5t-77.5 -5.5t-59 51t-5.5 77q51 158 283 498q33 47 67 96q72 102 162 227q31 43 72 97q0 2 25.5 35.5t31.5 42.5q23 33 109 145q18 27 32 45q-109 -2 -264 -12q-375 -23 -491 -41 q-41 -8 -76 17.5t-41 67.5z" />
<glyph unicode="8" horiz-adv-x="1183" d="M182 1081q-10 154 84 295q94 143 238 195q172 61 323 -43q12 -8 23 -21q16 -8 33 -20q31 -20 65 -60q6 -6 15 -14l4 -4l8 -8q131 -141 104 -307q-20 -145 -151 -250v-2q16 -14 33 -29q115 -117 131 -293q16 -168 -66 -313q-92 -160 -268 -219q-213 -72 -383 61 q-139 106 -189 305q-47 195 23 351q35 75 94 126q-113 98 -121 250zM385 401q33 -127 115 -190q84 -66 192 -29q102 35 156 127q49 88 39 193q-8 102 -74 166q-49 49 -123 63q-18 -2 -35 -4q-45 -6 -88 -4q-4 -2 -10 -4q-35 -25 -78 -19q-55 -20 -84 -79q-41 -92 -10 -220z M385 1094q6 -80 76 -127q35 -23 74 -33h4q37 8 92 8q24 0 49 -2q68 18 119 61q70 57 80 123q10 68 -54 138q-2 2 -6 8l-6 4l-12 12q-37 41 -53 43q-51 6 -76 51q-47 16 -99 -4q-80 -27 -136 -112.5t-52 -169.5z" />
<glyph unicode="9" horiz-adv-x="1198" d="M154 971q-37 141 6 272t157 213q90 63 230 80q80 8 211 4q170 -8 262 -94q88 -84 90 -227q0 -193 -168 -502q-8 -31 -31 -51q-51 -92 -118 -197q-74 -113 -177 -256l-69 -94q-31 -43 -41 -60q-25 -35 -67 -43t-76.5 15.5t-43 64.5t14.5 76q14 20 47 68q51 70 68 94 q100 137 172 248q4 8 10 14q-41 -2 -76 4q-20 2 -41 6q-131 31 -227.5 130.5t-132.5 234.5zM352 1024q23 -82 79 -141.5t130 -75.5q8 -2 19 -4q39 -4 90 2q35 6 98 20q137 256 137 392q0 57 -26 79q-35 35 -129 39q-115 4 -179 -4q-88 -10 -135 -43q-61 -43 -82.5 -113.5 t-1.5 -150.5z" />
<glyph unicode=":" horiz-adv-x="534" d="M188 936q23 57 88 96q37 23 78 11.5t62 -48.5q22 -36 10 -77q2 -10 2 -21q0 -35 -12 -63q-18 -41 -56 -62q-41 -18 -80.5 -10t-66.5 39q-53 59 -25 135zM195 197q12 41 50 60t79 7q27 -8 45 -28q33 -8 55 -36t22 -65q0 -68 -59 -104q-45 -31 -98 -19q-66 12 -92 76 q-20 49 -2 109z" />
<glyph unicode=";" horiz-adv-x="616" d="M61 -184q68 201 250 446q25 33 67 39t75.5 -18.5t40 -66.5t-18.5 -77q-162 -219 -219 -389q-12 -41 -50 -59.5t-79 -5t-59.5 51.5t-6.5 79zM251.5 914.5q10.5 41.5 47.5 64.5l2 2q25 27 59 31q92 16 144 -56q41 -59 14 -129q-14 -39 -47 -61q-41 -29 -92 -18 q-39 6 -72 36q-23 20 -43 54q-23 35 -12.5 76.5z" />
<glyph unicode="&#x3c;" horiz-adv-x="1257" d="M166 792.5q-12 41.5 8 77.5q29 54 88 54q414 182 742 432q35 27 76.5 20.5t67.5 -40t19.5 -75.5t-39.5 -67q-270 -207 -616 -379q23 -10 49 -22q55 -27 72 -33q156 -70 248 -119q135 -72 231 -149q33 -27 38 -69t-21.5 -75t-69.5 -38t-76 22q-80 66 -201 129 q-84 45 -233 112l-72 31q-162 74 -246 117q-8 4 -16 10q-37 20 -49 61.5z" />
<glyph unicode="=" horiz-adv-x="1308" d="M72 980q0 42 30.5 71.5t71.5 29.5q25 0 70 2h21.5h29.5h29h12q182 2 301 2q410 -2 512 -36q41 -14 60.5 -52.5t6 -78t-51.5 -59t-79 -5.5q-37 12 -163 18q-113 6 -287 9q-117 0 -297 -2h-14h-26.5h-30h-21.5q-47 -2 -72 -2q-41 0 -71.5 30.5t-30.5 72.5zM94 685 q8 42 43 65.5t78 15.5q164 -31 451 -16q45 2 129 8q215 14 315 14q43 0 72.5 -29.5t29.5 -72.5t-29.5 -73t-72.5 -30q-94 0 -301 -14q-86 -4 -133 -8q-311 -16 -500 20q-43 8 -66.5 43t-15.5 77z" />
<glyph unicode="&#x3e;" horiz-adv-x="1259" d="M76 1245q-10 41 10 78t61 48t78 -9q43 -25 166 -76q8 -4 114.5 -48t137.5 -56q125 -53 211 -95q111 -53 180 -98q94 -63 125 -125q29 -57 -8 -108q-8 -41 -45 -66q-195 -129 -547 -303l-145 -72q-68 -33 -115 -57q-39 -18 -79 -5t-58.5 51t-5 79t50.5 59q49 25 117 58 q113 55 143 69q295 145 457 246q-2 2 -4 2q-55 39 -154 86q-82 39 -203 90q-29 12 -136.5 56.5t-113.5 46.5q-135 57 -190 88q-37 20 -47 61z" />
<glyph unicode="?" horiz-adv-x="1024" d="M102 1141q-12 160 97 284q94 106 241 146q152 39 279 -15q152 -63 203 -227q45 -152 -56 -276q-35 -45 -94 -88q-39 -29 -102 -70q-6 -4 -18.5 -12.5t-24 -15.5t-13.5 -7q-125 -78 -170 -129q-57 -63 -53 -135q0 -20 27 -33q47 -23 119 -16q74 4 120 37q33 20 33 45 q0 43 30 72.5t72 29.5t72.5 -29.5t30.5 -72.5q0 -133 -123 -215q-92 -61 -219 -72q-129 -10 -225 39q-133 66 -142 203q-8 158 107 284q41 47 104 93q39 31 109 73q2 0 13 7.5t23.5 15.5t16.5 10q113 72 148 115q33 41 18 90q-23 70 -84 96q-63 27 -147 4q-88 -23 -142 -82 q-51 -59 -45 -133q4 -43 -23.5 -74.5t-69.5 -36t-75 23.5t-37 71zM395 215q16 35 50 50t71 5l4 -2q8 -2 10 -2q10 -2 17 -6q12 -4 22 -10q18 -10 33 -27q23 -27 27 -65q23 -55 -15 -103q-27 -33 -68.5 -38t-74.5 22q-31 25 -63 65q-43 51 -13 111z" />
<glyph unicode="@" horiz-adv-x="1804" d="M164 569q-92 287 55 584q115 229 359 348q227 111 479 90q262 -23 440 -180q199 -178 217 -469q16 -260 -102 -418q-57 -76 -137 -111.5t-162 -21.5q-94 16 -160 90q-49 -53 -104 -82q-109 -55 -254 -26q-129 27 -214 94.5t-116 169.5q-27 86 -9.5 179t71 177t131 138.5 t165.5 66.5q162 23 295 -96l8 24q14 39 53.5 57.5t79 3t57 -53t3.5 -78.5q-84 -231 -47 -369q12 -47 37 -72q18 -16 39 -20q51 -10 100 55q74 96 61 281q-12 207 -149 327q-125 113 -320.5 129.5t-371.5 -69.5q-182 -88 -265 -254q-113 -223 -45 -430q61 -186 248 -316 q182 -127 398 -137q219 -12 374 113q33 27 75 21.5t68.5 -38t21.5 -74.5t-38 -69q-215 -172 -512 -158q-272 12 -504 175q-242 168 -325 419zM662 696q10 -41 45 -69q47 -37 127 -54q76 -14 120 9q41 20 105 100q2 4 4 6q-12 82 0 176q-19 13 -31 29q-47 66 -98 90 q-39 18 -82 12q-90 -12 -153.5 -112.5t-36.5 -186.5z" />
<glyph unicode="A" horiz-adv-x="1538" d="M20 76q0 23 11 43q0 2 2 6q8 23 26 39q6 12 15 29q31 55 80 151q102 201 225 463q133 281 219 475q45 104 70 170q12 31 18 51l4 10q0 25 12 46q16 47 66 63q16 5 31 5q24 -1 47 -13q37 -20 51 -60q51 -164 127 -364q49 -131 143 -365q4 -10 15 -37q90 -227 135 -344 q74 -193 127 -350q5 -16 5 -32q1 -24 -11 -47q-18 -38 -59 -51q-16 -5 -32 -5q-23 -1 -45 11q-38 20 -53 59q-51 154 -123 342q-8 23 -16 45h-10q-184 27 -380 27q-135 0 -274 -13h-20q-49 -98 -90 -178q-49 -100 -82 -158q-4 -10 -10 -18q0 -8 -4 -19q-6 -12 -15 -24 q-4 -4 -8 -9.5t-8 -9.5q-8 -8 -21 -18q-29 -23 -65 -23q-47 0 -78 37q-25 29 -25 66zM528 641q95 6 189 6q156 0 307 -16q-14 35 -33 82q-10 27 -14 37q-94 236 -143 368q-20 53 -39 103q-4 -10 -11 -21q-86 -199 -219 -481q-18 -39 -37 -78z" />
<glyph unicode="B" horiz-adv-x="1310" d="M205 1468q-1 8 -1 16q0 33 20 61q26 34 67 40q29 4 53 -8q163 41 298 40q125 0 226 -34q111 -37 179.5 -112.5t80.5 -176.5q3 -20 3 -40q1 -74 -35 -149q-44 -95 -138 -175q-22 -19 -47 -37q160 -84 244 -246q66 -124 65 -250q0 -46 -8 -92q-37 -195 -208 -287 q-82 -43 -191 -61q-82 -12 -192 -12q-49 0 -142 2q-88 4 -127 4q-29 -14 -61 -8q-43 7 -67 41q-18 26 -19 55q0 10 2 20q48 303 48 662v15q-1 368 -50 732zM422 1384q25 -219 33 -438q75 17 147 19q137 47 223 120q102 88 102 172q0 8 -1 15q-10 80 -123 117q-69 24 -159 24 q-98 0 -222 -29zM426 154q23 0 59 -2q90 -2 136 -2q190 0 286 51q86 45 105 141q4 25 4 51q0 78 -41 158q-61 115 -178 170q-74 35 -162 39q-82 -27 -174 -45q-2 -301 -35 -561z" />
<glyph unicode="C" horiz-adv-x="1497" d="M125 623q-3 35 -3 69q0 118 32 233q41 148 127 269q205 283 573 324q109 10 182 10h23q139 -6 227 -66q35 -24 44 -64q2 -11 2 -22q0 -28 -16 -54q-24 -36 -64 -46q-11 -3 -22 -2q-28 0 -54 18q-43 27 -127 31h-18q-57 0 -154 -10q-279 -31 -431 -238 q-119 -165 -119 -372q0 -32 3 -64q20 -242 180 -377q130 -109 319 -109q74 0 158 17q45 10 131 53q35 16 47 23q66 31 115 43q13 3 26 3q27 0 52 -14q37 -22 47 -63q3 -13 3 -26q0 -27 -14 -52q-22 -37 -63 -47q-31 -8 -78 -31q-12 -4 -43 -20q-51 -25 -84 -39 q-51 -20 -100 -31q-105 -21 -200 -21q-260 0 -447 156q-111 92 -176.5 227.5t-77.5 291.5z" />
<glyph unicode="D" horiz-adv-x="1511" d="M164 1178q2 223 41 342q10 35 43 55q24 27 63 33q81 10 161 10q148 0 294 -32q226 -50 387 -165q190 -137 246 -340q23 -80 23 -166q0 -152 -72 -321q-66 -160 -140 -256q-92 -125 -227 -205q-102 -61 -238 -96q-90 -23 -235 -39q-16 -2 -49 -6q-109 -12 -160 -21 q-11 -2 -21 -2q-31 1 -57 19q-35 24 -41 67v4q-14 29 -8 60q16 104 16 276q0 115 -10 338q-2 12 -2 33q-14 285 -14 412zM369 1176q0 -121 14 -402v-31q12 -227 12 -348q0 -117 -6 -205q18 2 47 5q35 4 49 6q133 16 211 35q104 27 181 71q102 61 170 152q57 80 114 215 q56 132 56 243q0 57 -15 109q-37 133 -170 229q-119 84 -292 125q-134 32 -272 32q-40 0 -81 -3q-16 -86 -18 -233z" />
<glyph unicode="E" horiz-adv-x="1308" d="M167 800v104q0 203 3 360q4 229 16 270q12 42 50 62q24 13 48 12q14 0 29 -4q15 -5 27 -13q124 28 318 28q35 0 73 -1q61 0 170 -6q154 -6 215 -6q43 0 73 -30t30 -73t-30 -72.5t-73 -29.5q-68 0 -223 8q-109 4 -166 4q-39 1 -76 1q-169 0 -272 -23q-2 -55 -4 -131 q-2 -127 -4 -291q22 1 45 1q46 0 96 -3q82 -4 238 -23q37 -4 55 -6q145 -16 235 -16q41 0 72 -30t31 -73t-31 -72.5t-72 -29.5q-102 0 -260 18q-18 2 -53 6q-152 18 -225 23q-23 1 -46 1q-45 0 -85 -3q2 -242 6 -412q2 -82 4 -131q16 -2 37 -4q88 -4 237 -4q53 -1 116.5 -1 t137.5 1h33h8h8h15h39q43 0 72.5 -29.5t29.5 -71.5t-29.5 -73t-72.5 -31h-37h-14h-8.5h-8.5h-33q-75 -1 -139.5 -1t-118.5 1q-156 0 -247 6q-57 2 -93 8q-23 4 -41 9q-12 4 -22 8q-23 10 -37 29q-16 16 -21.5 29.5t-9.5 43.5q-2 18 -4 51q-4 55 -6 154q-4 188 -5 456z" />
<glyph unicode="F" horiz-adv-x="1232" d="M129 768q-4 200 -4 368q0 234 8 404q2 44 33 72q29 27 67 26h5q6 2 10 2q97 16 226 16q86 0 185 -7q152 -10 396 -45q43 -6 69 -40q21 -28 20 -60q0 -8 -1 -16q-6 -42 -40 -68q-28 -21 -61 -20q-8 0 -16 1q-238 33 -381 45q-92 6 -169.5 6t-141.5 -6q-4 -134 -4 -296 v-112q79 12 196 11h52q35 -2 96 -5q109 -6 153 -6q43 0 73 -30.5t30 -72.5t-30 -71.5t-73 -29.5q-51 0 -163 6q-61 2 -95 4q-34 1 -65 1q-108 0 -172 -16q0 -29 2 -57q0 -49 2 -143q8 -336 8 -502q0 -43 -30.5 -72.5t-72.5 -29.5t-72 29.5t-30 72.5q0 164 -8 498 q-2 94 -2 143z" />
<glyph unicode="G" horiz-adv-x="1630" d="M74 801q8 100 37 213q68 268 288 418q186 125 439 145q48 4 95 4q169 0 316 -51q92 -33 156 -82q78 -61 96 -141q3 -12 3 -24q0 -28 -16 -54q-24 -37 -65 -46q-12 -3 -23 -3q-28 0 -54 16q-36 23 -46 66q0 2 -4 6q-6 10 -18 20q-35 27 -96 49q-114 38 -249 38 q-39 0 -79 -3q-199 -16 -340 -110q-158 -106 -205 -299q-35 -140 -35 -242q0 -58 11 -103q41 -164 184 -264q135 -96 315 -108q25 -2 50 -2q151 0 274 67q150 82 205 240v2q2 2 2 6q2 8 6 21q4 16 6 32q-45 4 -113 4q-35 0 -94 -2q-78 -4 -108 -4q-43 0 -73 31t-30 73 t30 71.5t73 29.5q27 0 100 4q63 2 100 2h23q145 0 225 -24q35 -12 58 -41q12 -18 18 -39t4 -47q0 -31 -6 -74q-12 -72 -29 -113q-82 -231 -299 -352q-171 -92 -374 -92q-31 0 -62 2q-238 16 -422 147q-203 143 -262 381q-16 64 -16 145q0 41 4 87z" />
<glyph unicode="H" horiz-adv-x="1400" d="M176 1323q-3 47 -3 88q0 82 13 139q8 40 45 62q26 15 54 16q12 0 24 -3q41 -9 63 -45q16 -25 16 -53q0 -13 -3 -26q-7 -32 -7 -83q0 -34 3 -77q2 -20 6 -57q8 -86 8 -123q4 -98 6 -205q27 2 68 2q61 4 207 7h4h2h4h8h17q18 0 32 2q193 2 279 8q55 4 84 8q1 86 1 159.5 t-1 133.5q-2 211 -19 260q-6 17 -6 34q-1 23 11 45q20 38 60 51q16 5 32 5q24 1 46 -11q38 -20 52 -58q27 -80 29 -322q1 -51 1 -111q0 -151 -7 -364q-2 -96 -7 -234q-2 -29 -4 -73v-37q-2 -20 -2 -37q-2 -82 -4 -131q-4 -137 -4 -197q0 -43 -30.5 -72.5t-72.5 -29.5 t-72 29.5t-30 72.5q0 63 4 203q2 49 4 133q1 15 3 35v37q2 45 4 76q4 115 6 196q-27 -2 -64 -6q-92 -4 -288 -8q-14 0 -33 -2h-17h-10h-4h-4q-215 -4 -279 -8v-154v-158q-2 -199 -2 -299q0 -43 -29.5 -72.5t-72.5 -29.5t-72.5 29.5t-29.5 72.5q0 100 2 301v156v119 q0 259 -7 436q0 33 -8 111q-4 39 -6 59z" />
<glyph unicode="I" horiz-adv-x="477" d="M145 791v75q0 399 39 670q6 40 40 66q28 21 60 21q8 0 16 -1q42 -6 68 -40q21 -28 20 -61q0 -8 -1 -16q-37 -254 -37 -636v-76q0 -100 4 -295q4 -242 4 -359q0 -43 -29.5 -72.5t-72.5 -29.5t-72.5 29.5t-29.5 72.5q0 115 -4 355q-4 197 -5 297z" />
<glyph unicode="J" horiz-adv-x="718" d="M-51 84q-2 10 -2 20q0 22 10 43q6 20 23 35q23 23 56.5 28t61.5 -9h23q29 0 55 4q12 0 21 2q66 23 107.5 72t70.5 135q47 137 49 315q1 19 1 41q0 111 -17 297v12q-12 135 -15 205q-4 69 -4 130q0 41 2 79q2 43 33 71q29 27 68 27h6q43 -2 72 -33q26 -30 26 -69v-6 q-2 -33 -2 -70q0 -55 4 -119q2 -66 14 -196v-13q17 -205 17 -326v-34q-4 -209 -60 -375q-41 -123 -106 -200q-78 -94 -199 -138q-41 -14 -139 -16q-14 -1 -27 -1q-26 0 -44 3q-29 4 -50 16q-16 8 -27 19q-23 23 -28 51z" />
<glyph unicode="K" horiz-adv-x="1544" d="M174 115v10q2 14 2 20.5v10.5t1 7t1 5q2 27 2 61q2 35 4 95q0 2 1 24.5t2 47t1 34.5q4 82 7 139q6 172 6 279q0 72 -6 219q-4 68 -5 102q-2 63 -2 120q0 149 15 255q3 42 37 68q27 21 60 21q8 0 16 -1q42 -6 69 -38q22 -27 22 -61q0 -7 -1 -15q-12 -98 -12 -245 q0 -46 1 -97q0 -35 4 -101q4 -117 4 -170q4 4 7 6q12 18 32 31q37 37 82 76q63 57 189 162q2 2 8 7t6 7q158 131 236 203q123 115 206 215q27 33 69 37q5 1 10 1q36 0 65 -25q33 -28 37 -70q1 -5 1 -11q0 -35 -24 -63q-94 -111 -227 -234q-80 -76 -240 -211q-2 0 -8 -5 t-8 -7q-113 -96 -168 -145q90 -53 182 -136q94 -86 256 -268l4 -6q6 -6 12.5 -13t8.5 -10q88 -100 139 -151q74 -78 139 -129q33 -27 38 -69q1 -7 1 -13q0 -34 -22 -62q-26 -34 -69 -38q-6 -1 -11 -1q-35 0 -64 23q-76 59 -160 146q-53 57 -145 159q-2 2 -8 8.5t-10 12.5 l-6 6q-154 174 -240 252q-102 92 -201 141q-14 -12 -28 -26q-31 -32 -73 -32q-9 0 -18 1q0 -51 -2 -110.5t-6 -141.5q-10 -287 -10 -338q0 -43 -29.5 -72.5t-72.5 -29.5q-35 0 -63 20.5t-36 52.5q-2 2 -4 6q-8 27 -4 54z" />
<glyph unicode="L" horiz-adv-x="1040" d="M158 1159q-1 39 -1 77q0 152 19 280q4 42 39 68q28 20 60 21q8 1 17 -1q42 -6 66 -40q20 -27 20 -60q0 -8 -1 -17q-15 -121 -15 -273v-51q2 -133 23 -342q2 -37 8 -104q18 -174 25 -260q10 -141 10 -252q30 -4 72 -4t96 4q27 2 76 8q129 14 176 14q43 0 72.5 -29.5 t29.5 -72.5t-29.5 -72.5t-72.5 -29.5q-37 0 -154 -13q-51 -6 -82 -8q-74 -6 -130 -6h-27q-92 4 -156 33q-49 23 -68 75q-8 25 -8 58v24v4v3v2q0 106 -10 245q-6 84 -23 258q-6 68 -10 103q-20 217 -22 358z" />
<glyph unicode="M" horiz-adv-x="1929" d="M84 129q16 135 47 301q20 102 59 293q2 4 5 18v2q8 39 22 109q8 39 12 55q45 207 64 332q20 133 20 246v6q0 2 2 8q0 8 1 17.5t1 17.5v8q5 55 49 81q27 16 54 16q19 1 37 -7q47 -18 61 -71h2v-5q2 -8 4 -14q6 -23 11 -43q14 -51 16 -55q45 -152 264 -696 q82 -203 143 -345q47 133 127 351q182 502 261 698q27 66 38 90q6 16 13 25q14 18 30 30q30 39 77 39h9q43 -2 72 -32q27 -29 27 -69v-5q-1 -21 -1 -46q0 -205 75 -642q59 -338 151 -758q3 -12 3 -24q0 -28 -16 -53q-24 -36 -65 -45q-12 -3 -23 -3q-28 1 -54 17 q-36 22 -44 65q-96 424 -153 766q-31 170 -49 309q-66 -178 -158 -432q-119 -326 -182 -508v-6q-4 -14 -6 -23q-6 -25 -15 -43q-10 -20 -24 -34q-32 -32 -74 -32q-7 0 -14 1q-37 4 -51.5 15.5t-37.5 45.5q-10 16 -22 43q-25 47 -61 131q-66 152 -166 398q-82 205 -154 393 q-14 -78 -41 -199q-4 -18 -12 -57q-14 -70 -23 -107q-2 -14 -4 -20q-39 -188 -57 -289q-31 -160 -47 -289q-4 -42 -38 -68q-29 -22 -63 -22q-6 0 -13 1q-41 5 -67 39q-22 29 -23 64q0 5 1 11z" />
<glyph unicode="N" horiz-adv-x="1689" d="M184 877q0 68 6 198v12q6 133 7 205q0 111 -7 197q-1 7 -1 13q0 48 40 77q12 16 29 27q25 13 51 13q13 0 27 -3q41 -10 63 -47q143 -242 363 -508q145 -174 422 -473q8 -10 40.5 -44t37.5 -38q25 -29 43 -49q31 -33 71 -84q-6 61 -22 207q-16 129 -23 198 q-22 200 -22 350v13q0 201 39 366q8 41 45 63q26 16 55 17q10 0 22 -3q40 -9 64 -45q16 -25 15 -52q0 -12 -3 -25q-33 -143 -33 -321q0 -143 21 -342q6 -66 22 -195q23 -182 31 -270q14 -152 15 -271q0 -43 -31 -72.5t-72 -29.5q-35 0 -61.5 19.5t-36.5 52.5q-33 29 -70 71 q-31 33 -78 95q-2 2 -8 10l-8 10q-10 12 -16 21q-39 49 -66 77l-45 50q-4 4 -36 37.5t-40 41.5q-283 305 -430 484q-113 137 -205 264q-2 -41 -4 -115v-12q-6 -129 -6 -193q-1 -26 -1 -52q0 -75 5 -136q2 -49 10 -149q23 -317 23 -480q0 -41 -29.5 -71.5t-71.5 -30.5 t-73 30.5t-31 71.5q0 154 -22 463q-8 102 -11 152q-4 69 -4 150v55z" />
<glyph unicode="O" horiz-adv-x="1757" d="M106 773q8 308 185 536q199 254 530 299q16 2 56 10q25 4 38 6q46 8 83 8h14h5q58 0 107 -24q266 -39 416 -308q74 -128 106 -290q23 -117 23 -237q0 -45 -4 -91q-29 -369 -238 -590q-121 -127 -285 -176q-94 -28 -198 -28q-78 0 -162 16q-332 63 -516 325 q-161 226 -161 518q1 13 1 26zM310 769v-20q0 -229 122 -401q139 -197 387 -242q67 -13 127 -13q200 0 332 140q160 168 182 463q4 46 4 91q0 234 -102 413q-117 209 -318 209q-32 0 -59 18q-14 -2 -35 -4q-10 -2 -32 -6q-47 -10 -70 -14q-250 -33 -395 -219 q-137 -174 -143 -415z" />
<glyph unicode="P" horiz-adv-x="1138" d="M182 1483q-1 8 -1 16q1 31 19 59q24 34 66 44q27 4 51 -5q138 45 256 45q149 0 267 -71q94 -59 148 -155.5t61 -211.5q1 -13 0 -27q0 -97 -38 -191q-44 -107 -128 -189q-170 -164 -449 -185q0 -135 -4 -321q0 -8 -1 -67.5t-1 -72v-22.5v-20v-31v-8v-21q-2 -4 -2 -6 q-2 -39 -31.5 -66.5t-70.5 -27.5t-72 29.5t-31 72.5q0 109 2 117v2q0 18 1 67.5t1 57.5q4 212 4 383q0 114 -2 209q-8 383 -45 596zM399 1409q27 -207 33 -518q0 -37 2 -74q193 18 305 127q105 101 105 237v15q-6 135 -113 199q-68 42 -162 42q-76 0 -170 -28z" />
<glyph unicode="Q" horiz-adv-x="1759" d="M193 758q6 270 165 485q178 233 482 311q16 2 63 19q39 12 62 18q61 14 108 15q72 0 127 -33q20 -12 33 -31q156 -74 258 -248q132 -226 132 -515q0 -28 -1 -56q-14 -283 -154 -477q96 -78 140 -96q39 -18 54 -58q7 -19 7 -38q0 -20 -8 -40q-16 -39 -56 -54 q-19 -7 -38 -7q-21 0 -41 8q-74 31 -203 137q-156 -112 -364 -112q-78 0 -164 16q-291 53 -457 279q-145 196 -145 453v24zM397 754v-14q0 -194 107 -339q117 -160 327 -198q64 -11 122 -11q119 0 210 48q-193 180 -282 290q-24 29 -24 64q0 6 1 11q4 42 37 69q29 25 64 25 q6 0 11 -1q42 -4 68 -39q87 -104 275 -278q94 143 104 352q1 25 1 49q0 231 -105 410q-111 188 -285 188q-16 0 -33 6q-12 -4 -28 -8q-55 -18 -76 -24q-236 -57 -369 -234q-121 -162 -125 -366z" />
<glyph unicode="R" horiz-adv-x="1226" d="M160 446v106q0 203 6 341q2 63 18 201q6 53 9 80q9 87 9 154t-9 114q-2 10 -2 20q0 30 18 56q24 36 65 43q14 4 29 2q41 27 94 41q55 12 146 12q342 0 469 -170q63 -84 63 -195q0 -94 -49 -194q-88 -180 -281 -314q41 -70 136 -213q2 -4 4 -6q82 -129 125 -198 q68 -113 116 -209q10 -21 10 -44q0 -16 -5 -33q-13 -40 -51 -60q-22 -12 -45 -11q-17 -1 -33 5q-40 14 -60 53q-43 88 -108 194q-39 66 -121 193l-4 4q-99 153 -144 227q-100 -39 -200 -51v-148q0 -31 2 -94v-215q0 -43 -30 -72.5t-73 -29.5t-72.5 29.5t-29.5 72.5v215 q-2 61 -2 94zM367 801q129 23 249 102q158 104 226 244q29 60 29 106q0 41 -23 70q-27 37 -90 59q-84 29 -215 29q-66 0 -97 -8q-29 -6 -32 -14q-4 -6 -8 -11q2 -26 2 -55q0 -73 -11 -170q-4 -29 -10 -82q-14 -131 -16 -186q-2 -41 -4 -84z" />
<glyph unicode="S" horiz-adv-x="1128" d="M111 385q0 43 29.5 72.5t72.5 29.5t72.5 -29.5t29.5 -72.5q0 -92 58 -139q52 -41 136 -42q7 0 15 1q100 4 185 61q86 59 114 156q11 39 11 74q0 68 -43 118q-33 37 -93 76q-41 27 -129 76q-2 0 -4 2l-4 2q-78 43 -117 66q-66 43 -110 82q-129 115 -137 264q-1 16 -1 32 q0 158 91 263q92 104 241 125q31 4 62 4q108 0 214 -50q136 -64 214 -186q16 -25 16 -53q0 -12 -4 -25q-10 -42 -46 -64q-25 -15 -51 -15q-11 -1 -25 3q-40 10 -64 46q-45 72 -126 110q-64 30 -129 29q-17 0 -34 -2q-74 -10 -115 -58q-40 -45 -40 -125q0 -11 1 -22 q4 -66 68 -123q49 -45 190 -121q0 -2 3.5 -3t5.5 -1q96 -53 143 -84q84 -55 133 -112q96 -111 96 -251q0 -63 -20 -132q-47 -168 -195 -271q-133 -90 -293 -96q-13 -1 -26 -1q-153 0 -260 87q-135 109 -135 299z" />
<glyph unicode="T" horiz-adv-x="1224" d="M39 1451q2 42 33.5 70.5t72.5 28.5q14 -2 33 -2h6q8 0 15.5 -1t11.5 -1q225 -8 348 -12q270 -10 473 -10q43 0 73 -30t30 -73t-30 -72.5t-73 -29.5q-193 0 -440 8q-1 -14 -1 -31q0 -65 13 -161q2 -23 8 -64q20 -143 25 -211q4 -127 4 -289q0 -74 -4 -221q-4 -188 -4 -282 q0 -41 -30 -72t-73 -31t-72.5 31t-29.5 72q0 96 4 286q4 145 4 219q0 158 -4 277q-2 57 -22 190q-6 43 -9 68q-12 94 -14 160q-1 18 -1 34.5t1 32.5q-70 2 -184 6q-23 2 -33 2q-20 0 -33 3q-43 2 -71 32q-27 28 -27 68v5z" />
<glyph unicode="U" horiz-adv-x="1441" d="M150 909q-1 35 -1 70q0 253 50 539q9 42 43 66q26 18 55 18q10 0 21 -2q42 -8 66 -44q18 -26 19 -55q0 -10 -2 -20q-48 -265 -48 -496q0 -34 1 -67q12 -330 125 -512q41 -63 106.5 -106.5t135.5 -51.5q21 -2 42 -2q99 0 165 49q72 55 119 176q41 106 61 266 q14 106 20 279q2 39 11 131q6 74 8 113q1 27 1 51q0 113 -30 170q-10 23 -10 45q0 16 5 34q13 40 51 58q23 12 46 12q16 0 32 -5q40 -13 61 -52q35 -70 45 -162q5 -47 5 -103q0 -28 -1 -59q-2 -43 -11 -121q-8 -88 -8 -120q-8 -180 -22 -295q-23 -186 -74 -316 q-68 -176 -186 -266q-120 -89 -285 -89q-31 0 -64 3q-119 12 -225 80t-172 172q-141 229 -155 612z" />
<glyph unicode="V" horiz-adv-x="1447" d="M14 1478q0 42 30 72.5t72 30.5t72 -31q59 -57 142 -231q66 -137 153 -354q33 -78 68 -168q63 -168 147 -400q2 -4 4 -10q23 66 52 139q49 133 157 387q2 4 4 9q90 211 132 317q68 174 110 315q14 40 51 60q23 12 47 13q15 0 31 -5q40 -12 60 -50q12 -24 13 -47 q0 -15 -5 -30q-45 -150 -117 -332q-43 -109 -133 -321l-4 -8q-106 -250 -156 -379q-78 -209 -121 -381q-10 -39 -45 -62q-16 -16 -37 -24q-19 -6 -36 -6q-23 0 -43 9q-38 17 -54 56q-102 274 -102 281q-84 229 -148 395q-35 88 -65 166q-84 211 -148 340q-68 143 -102 176 q-29 31 -29 73z" />
<glyph unicode="W" horiz-adv-x="2260" d="M29 1548q12 40 49 60q24 12 49 13q14 0 29 -4q41 -11 61 -48q145 -270 234 -453q119 -252 194 -477q23 -68 55 -205q2 -12 5 -16q2 -12 4 -23q6 16 12 35q6 16 8 25q35 102 51 159q20 82 58 238q2 4 6 16l2 15q4 18 6 28q8 35 14 62q86 356 170 559q8 16 19 29 q25 37 65 47q11 2 21 2q31 0 57 -18q35 -24 43 -64q45 -211 156 -574q8 -27 24 -80q82 -264 117 -397q2 -4 4 -10q61 164 135 348q102 252 181 432q94 211 131 258q25 33 67 38q7 1 14 1q34 0 62 -22q33 -26 38 -67q1 -7 1 -13q0 -35 -23 -64q-6 -10 -32 -63 q-29 -57 -70 -150q-78 -176 -178 -426q-98 -242 -168 -430q-57 -156 -74 -215l4 -24q1 -8 1 -16q1 -32 -19 -60q-24 -35 -67 -42q-9 -2 -18 -2q-31 0 -57 20q-34 24 -43 67q0 10 -2 18q-8 18 -8 37q-27 150 -76 332q-37 131 -116 391q-16 53 -25 80q-45 154 -76 258 q-27 -94 -59 -229q-6 -25 -12 -60q-4 -12 -9 -28l-4 -13q-2 -14 -2 -18q-39 -158 -59 -242q-18 -66 -55 -176q-4 -6 -9 -22q-33 -92 -45 -138q-23 -74 -32 -131q-10 -63 -72 -82q-8 -6 -18 -12q-23 -10 -46 -10q-17 0 -33 5q-40 13 -59 50q-35 72 -63 164q-18 57 -41 160 q-2 4 -4 16q-31 129 -51 188q-70 211 -187 453q-84 176 -227 442q-13 23 -13 48q0 15 5 30z" />
<glyph unicode="X" horiz-adv-x="1277" d="M125 129q4 43 39 70q92 74 201 309q12 27 28 65l13 29q14 27 16 35q35 78 57 121q4 6 6 12q16 31 31 59q-12 23 -29 50q-6 12 -36.5 65t-36.5 64q-164 283 -271 432q-19 25 -19 56q0 8 2 18q8 42 42 67q28 20 60 20q8 0 16 -1q40 -6 67 -41q111 -158 281 -449 q4 -8 41 -72q164 283 328 486q27 33 69 37q5 1 10 1q35 0 64 -24q33 -27 37 -69q1 -5 1 -11q0 -35 -24 -63q-178 -221 -366 -561q51 -84 153 -232q4 -6 10 -14q8 -10 11 -15q88 -127 131 -196q72 -111 121 -207q10 -21 10 -44q0 -17 -6 -34q-14 -42 -50 -60q-22 -11 -45 -10 q-16 0 -33 6q-40 14 -61 50q-43 86 -108 188q-41 66 -127 191l-2 2q-6 10 -8 12q-6 8 -11 14q-59 86 -94 140q-14 -29 -35 -72q-2 -8 -14 -37l-12 -27q-18 -39 -31 -67q-59 -127 -109 -207q-72 -115 -151 -178q-28 -22 -64 -22q-6 0 -11 1q-42 4 -68 37q-23 29 -24 65 q0 5 1 11z" />
<glyph unicode="Y" horiz-adv-x="1271" d="M78 1470q-6 18 -6 35q0 22 9 43q17 39 57 54q19 8 37 8q21 0 41 -10q38 -17 54 -56q41 -111 185 -336q20 -37 47 -75q43 -68 104 -158q4 -8 19 -29q45 90 59 119q176 352 311 553q23 35 65 44q12 2 23 2q29 0 53 -16q35 -24 44 -66q3 -12 3 -23q0 -29 -18 -54 q-127 -190 -297 -532q-6 -8 -15 -27.5t-19.5 -40t-21.5 -43t-19.5 -39t-14.5 -28.5l-6 -13q-8 -18 -16 -34q-6 -10 -13 -19q-6 -43 -8 -92q0 -68 13 -203v-10q10 -121 12 -180q1 -24 1 -46q0 -78 -11 -141q-6 -43 -41 -67q-27 -19 -58 -19q-9 0 -19 1q-42 8 -66 42 q-20 28 -20 60q0 8 1 16q8 51 8 120v28q-2 53 -10 168q-2 6 -2 10q-11 134 -11 211v12q0 41 3 76q-6 6 -11 14q-6 8 -43 63.5l-45 67.5q-61 92 -106 162q-27 41 -49 78q-154 242 -203 370z" />
<glyph unicode="Z" horiz-adv-x="1396" d="M162 1493q2 43 34 71q29 27 67 27h5q92 -4 224 -4h108.5h108.5h39q4 0 29.5 1t33.5 1q66 0 115 2q94 0 149 -2q39 -2 62 -4q16 -2 28 -6q25 -6 43 -18q35 -23 45 -62q6 -23 2 -47q-2 -20 -12 -45q-12 -27 -37 -66q-4 -8 -10 -16q-12 -18 -31 -43l-4 -8l-4 -6q-2 -4 -4 -4 q-141 -231 -416 -656l-35 -55q-23 -33 -36 -53q-39 -63 -70 -111q-63 -98 -115 -178q57 2 234 6h37q217 7 336 7q99 0 131 -5q43 -6 69 -40q20 -27 20 -59q0 -8 -2 -17q-6 -41 -40 -67q-27 -21 -60 -21q-8 0 -16 1q-23 4 -111 4q-110 0 -321 -6q-16 -2 -37 -2 q-219 -6 -295 -6q-33 -1 -58 -1t-42 1q-23 0 -37 2q-12 2 -23 4q-40 10 -62 41q-19 26 -19 60q0 6 1 12q0 16 6.5 32.5t18.5 32.5q12 20 35 50l8 8q6 8 14 18l2 4q4 2 7.5 5.5t3.5 5.5q6 8 8 10q43 68 135 209q31 47 70 110q14 23 36 56q27 41 35 53q272 424 414 653 q2 0 10 14h-63q-45 -2 -111 -2q-8 0 -33.5 -1t-29.5 -1h-43h-107h-110q-135 0 -232 4q-44 2 -72 33q-27 29 -26 68v6z" />
<glyph unicode="[" horiz-adv-x="770" d="M166 1325q0 129 2 199q2 43 6 67q4 18 8 33q12 39 41 59q25 18 62 25q20 4 47 6q41 2 98 0q102 -4 164 -12q41 -6 66.5 -40t19.5 -76t-40 -67.5t-77 -19.5q-49 6 -139 10h-51q-2 -63 -2 -180q4 -197 18 -565q4 -80 8 -178q0 -18 8.5 -190.5t10.5 -209.5q8 -190 8 -243 q0 -10 -2 -35q0 -2 -2 -21.5t-2 -25.5q-2 -29 -2 -51q-2 -18 -2 -35q14 2 30 4q14 0 37 4q2 0 8.5 1t10.5 1h6q16 2 26 4q29 2 48 2q41 0 71.5 -29.5t30.5 -72.5t-30.5 -73t-71.5 -30q-10 0 -76 -8q-23 -2 -39 -4q-55 -4 -92 -4q-29 0 -49 6q-37 6 -62 27q-25 16 -37 45 q-6 12 -10 30.5t-6 47.5q-2 37 2 94q0 25 4 55q0 6 2 27v20q2 10 2 17v4q0 49 -8 235q-2 37 -10 208t-8 189q-4 98 -9 181q-14 371 -18 569z" />
<glyph unicode="\" horiz-adv-x="1120" d="M4 1624q10 41 47 62.5t78 11.5t61 -47q43 -72 84 -164q25 -59 66 -166q2 -4 4 -6q0 -2 1 -4t1 -4q51 -133 82 -199q45 -98 168 -358q152 -317 229 -498q123 -279 201 -512q12 -41 -6.5 -79t-59 -51t-78.5 6t-51 58q-76 225 -192 496q-78 178 -227 492q-125 262 -170 360 q-33 70 -86 211q-2 6 -4 8q0 4 -2 6q-80 205 -136 299q-20 37 -10 78z" />
<glyph unicode="]" horiz-adv-x="645" d="M45 1608q-2 43 26.5 73.5t71.5 32.5q6 0 25 2q4 0 20.5 2t20.5 2q35 4 61 6q55 4 92 0q68 -4 109 -32q20 -14 33 -37q8 -12 14 -29q4 -18 8 -45q2 -31 0 -78q0 -20 -2 -47q0 -4 -1 -17.5t-1 -15.5q-2 -6 -2 -10v-2q0 -276 19 -825v-49q16 -504 16 -781v-2v-4v-6 q2 -8 2 -16v-33q-2 -14 -6 -26.5t-10 -22.5q-10 -20 -29 -35q-25 -18 -61 -27q-23 -4 -52 -6q-39 -2 -96 4q-20 2 -47 4q-70 6 -78 6q-43 0 -72.5 31t-29.5 73t29.5 71.5t72.5 29.5q16 0 45 -2q10 -2 27 -2q20 -2 26 -4q25 -2 43 -4q16 0 31 -2q0 260 -16 747v50 q-18 553 -19 831q0 8 2 27q0 4 1 16t1 17q2 25 3 40v11q-16 0 -39 -2t-54 -4q-4 0 -20 -2.5t-21 -2.5q-25 -2 -36 -4q-43 -2 -74 27t-33 72z" />
<glyph unicode="^" horiz-adv-x="1167" d="M43 956q39 115 135 250q70 98 170 209q2 2 19 23q25 31 39 47q10 14 20 26q31 35 55 54q18 16 39 26q41 18 82 8q55 -14 109 -63q39 -37 80 -94q55 -74 122 -199l48 -84q4 -8 21 -41t19 -37q43 -82 60 -108q25 -35 16.5 -77t-44.5 -64.5t-78 -14.5t-64.5 43t-71.5 125 q-2 4 -19.5 37t-21.5 41q-25 47 -43 82q-63 113 -110 178q-23 33 -43 53q-8 -8 -19 -20l-31 -37q-29 -37 -32 -43q-209 -227 -262 -385q-14 -41 -52.5 -59.5t-78 -5t-58 51t-6.5 78.5z" />
<glyph unicode="_" horiz-adv-x="1280" d="M-18.5 -170q10.5 41 47 62.5t77.5 11.5q180 -47 502 -37q63 2 183 8q205 10 299 10q41 0 71.5 -29.5t30.5 -72.5t-31 -72.5t-71 -29.5q-88 0 -289 -11q-121 -6 -187 -8q-164 -4 -282 2q-156 10 -277 41q-41 12 -62.5 48t-11 77z" />
<glyph unicode="`" horiz-adv-x="733" d="M230 1463.5q-3 41.5 25 74.5t70.5 36t73.5 -26q143 -123 222 -221q27 -33 22.5 -75t-38.5 -68.5t-76 -22.5t-68 37q-68 86 -195 195q-33 29 -36 70.5z" />
<glyph unicode="a" horiz-adv-x="1191" d="M68 426q2 109 43 217.5t112 198.5q78 96 178.5 151.5t206.5 55.5h5q157 0 290 -117q10 31 39 50q26 17 57 17h7q42 -3 70 -33q27 -28 26 -67v-6q-20 -428 -21 -821q0 -43 -29.5 -73t-71.5 -30t-72.5 30t-30.5 73v88q-25 -31 -52 -58q-68 -63 -155 -104q-73 -32 -155 -32 q-19 0 -37 2q-102 9 -193 61q-109 63 -164 167q-53 100 -53 221v9zM272 424v-5q0 -146 115 -212q49 -29 103 -34q12 -1 24 -1q40 0 72 14q55 25 96 64q31 29 76 90q2 4 6 8q0 2 2 5t4 5q8 10 14 19q16 23 29 39q33 41 64 71q2 2 6 7q2 70 4 141q-7 6 -13 14 q-68 106 -143 156q-59 39 -121 39q-123 0 -227 -131q-109 -135 -111 -289z" />
<glyph unicode="b" horiz-adv-x="1161" d="M139 1595v6q0 39 26 69q28 32 71 34h6q40 0 68 -26q30 -28 32 -72q14 -295 14 -715q10 8 21 16q70 53 170 94q89 35 167 34q47 1 90 -11q116 -32 187 -147q55 -88 73 -211q8 -56 9 -112q0 -67 -12 -134q-25 -135 -89.5 -237.5t-160.5 -153.5q-77 -38 -163 -38 q-46 0 -95 11q-98 23 -203 94q-4 -41 -32.5 -68.5t-69.5 -27.5q-43 0 -73 29.5t-30 72.5q0 145 2 441q2 164 3 245q1 104 1 199q0 359 -12 608zM350 338q27 -6 47 -23q111 -92 203 -114q24 -5 47 -5q38 0 70 15q51 27 89 91.5t53 153.5q9 51 9 101q0 36 -5 72 q-11 84 -46 139q-29 47 -69 59q-16 4 -34 4q-39 0 -89 -20q-166 -68 -197 -147q-18 -55 -74 -66q-2 -25 -2 -57q0 -129 -2 -203z" />
<glyph unicode="c" horiz-adv-x="1075" d="M102 631q18 119 98.5 212t217.5 148q79 33 161 33q57 0 115 -16q125 -35 228 -134q32 -29 32 -73q0 -42 -28 -72q-28 -31 -72 -32h-3q-41 0 -71 30q-66 63 -140 83q-31 9 -62 9q-41 0 -80 -16q-172 -72 -193 -203q-3 -19 -3 -38q0 -102 81 -206q94 -121 215 -137 q14 -2 27 -2q102 0 174 109q25 37 65 45q10 2 21 2q29 1 56 -17q36 -24 44 -66q2 -10 2 -21q0 -30 -18 -56q-73 -111 -177 -162q-79 -39 -166 -39q-27 0 -55 4q-98 12 -189 69.5t-161 145.5q-124 157 -124 329q0 35 5 71z" />
<glyph unicode="d" horiz-adv-x="1150" d="M150 508q8 110 47 213q45 117 120.5 193.5t174.5 99.5q40 10 79 9q129 0 260 -101q-2 53 -6 112q-2 36 -2 80q0 66 4 152q0 16 2 47q4 100 4 173.5t-4 121.5q-1 5 -1 11q0 35 25 63q28 32 70 36q5 1 11 1q36 -1 64 -25q32 -28 36 -70q4 -54 4 -118v-44q0 -53 -4 -157 q-2 -31 -2 -48q-4 -80 -4 -141q0 -40 2 -72q31 -586 31 -927q0 -43 -30 -73t-71.5 -30t-72.5 30t-31 73v49q-41 -35 -96 -64q-142 -76 -254 -76q-10 0 -19 1q-121 8 -203.5 80.5t-115.5 193.5q-21 73 -21 154q1 27 3 53zM365 356q33 -117 135 -125q4 0 8 -1q60 0 156 53 q49 27 79 55q12 12 19 22q2 4 4 9v2q6 33 29.5 56.5t56.5 27.5q-2 86 -6 182q-25 11 -43 31q-84 96 -162 133q-38 17 -73 17q-15 0 -29 -3q-43 -10 -83 -54t-69 -114q-36 -96 -37 -184q1 -55 15 -107z" />
<glyph unicode="e" horiz-adv-x="1128" d="M123 664q98 256 285 319q58 20 117 20q104 0 216 -61q135 -74 228 -199q43 -61 59 -116q10 -32 10 -59v-9q-2 -49 -28 -84q-12 -18 -33 -31q-12 -6 -24.5 -10t-30.5 -6q-23 -4 -58 -4q-45 0 -133 2q-14 2 -39 2q-96 4 -119 4q-33 0 -104 -2q-43 0 -66 -2q-71 0 -122 2v-8 q0 -63 28 -111q51 -88 180 -121q58 -15 111 -15q61 0 117 20q39 14 59 36q12 14 12 31q0 43 30 73t73 30t72.5 -30t29.5 -73q0 -96 -65 -168q-53 -59 -142 -92q-88 -32 -184 -32q-79 0 -164 22q-211 53 -305 215q-59 99 -59 220q0 110 49 237zM334 633h65q23 2 64 2 q74 2 110 2q29 0 129 -4q23 -2 37 -2q33 0 58 -2q-61 84 -154 133q-66 36 -122 36q-25 0 -48 -7q-41 -14 -76 -56q-35 -39 -63 -102z" />
<glyph unicode="f" horiz-adv-x="786" d="M7 896q7 42 42 66q26 19 56 19q10 0 20 -2q27 -4 53 -6q-10 104 -12 190q-1 32 -1 61q0 90 9 160q16 125 57 201q63 113 179 125q13 1 27 1q98 0 212 -75q37 -25 45 -66q2 -10 2 -20q0 -29 -16 -56q-23 -36 -64 -46q-12 -2 -23 -2q-29 0 -54 18q-41 27 -74 37 q-20 6 -33 6q-4 -2 -6 -4q-8 -4 -14 -18q-42 -73 -42 -265q0 -25 1 -51q2 -88 12 -202h57q80 2 119 2q43 0 73 -30t30 -72t-30 -72.5t-73 -30.5q-37 0 -115 -2h-41v-10q4 -60 4 -147q0 -108 -6 -259v-22q-6 -145 -6 -228q0 -43 -29.5 -72.5t-71.5 -29.5t-73 29.5t-31 72.5 q0 84 7 234v24q6 162 6 274q0 67 -2 115q-2 8 -2 21q-57 4 -109 14q-41 6 -66 41q-19 27 -19 59q0 9 2 18z" />
<glyph unicode="g" horiz-adv-x="1118" d="M94 -177q0 42 30 71.5t73 29.5t71 -28q61 -61 90 -86q39 -35 70 -52q45 -23 108 -23q35 0 74 7q2 2 8 2q6 2 9 2q100 16 125 47q43 59 61 213q4 43 8 92q-39 -35 -90 -67q-37 -23 -90 -29q-17 -2 -37 -2t-41 2q-59 6 -123 27q-240 76 -319 282q-31 83 -31 169 q0 102 43 210q78 193 244 281q98 53 200 53q99 0 201 -51q25 -12 49 -29q10 35 41 54q26 17 56 17q6 0 12 -1q43 -6 68 -40q21 -28 21 -60q0 -7 -1 -15q-6 -50 -6 -130v-42q0 -66 4 -223q4 -94 6 -146q1 -47 1 -90q0 -174 -13 -284q-23 -209 -101 -314q-49 -63 -131 -96 q-43 -16 -122 -31q-4 0 -11 -2h-8q-57 -10 -109 -10q-110 0 -198 45q-55 29 -113 80q-33 29 -100 94q-29 31 -29 73zM313 385q43 -115 189 -162q43 -12 84 -16q20 -2 32 -2l7 2q119 78 131 155q8 59 63 82q0 20 -2 52q-2 119 -4 166q0 2 -2 4q-45 84 -125 122 q-57 28 -112 28q-51 0 -101 -25q-100 -53 -149 -177q-28 -70 -28 -134q0 -50 17 -95z" />
<glyph unicode="h" horiz-adv-x="1017" d="M129 813q-2 114 -2 218q0 312 18 530q4 43 36 71q28 24 64 24q5 0 11 -1q44 -4 70 -36q25 -30 24 -69v-6q-18 -207 -18 -502q0 -106 2 -225q123 92 217 127q63 22 118 22q21 0 40 -3q80 -14 131 -80q68 -86 84 -275q5 -65 5 -195q0 -65 -1 -145q-2 -102 -2 -155 q0 -43 -30 -73t-72 -30t-72.5 30t-30.5 73q0 55 2 157q1 77 1 138q0 123 -5 184q-10 127 -39 164q-4 4 -8 4q-16 4 -51 -8q-100 -37 -281 -191q6 -264 6 -409q0 -43 -29.5 -73t-72.5 -30t-73 30t-30 73q0 147 -6 450q-4 139 -6 211z" />
<glyph unicode="i" horiz-adv-x="509" d="M145 1329q-2 27 7 53q2 6 6 15q4 31 23.5 54.5t49.5 33.5q21 10 42 10q23 0 46 -12q10 -2 21 -6q29 -12 49 -31q29 -31 31 -72q4 -31 -10 -61q-10 -18 -25 -33q-18 -20 -47 -37q-27 -14 -55 -18q-23 -4 -43 0q-37 6 -64 32q-29 31 -31 72zM170 512v33q0 250 29 409 q7 42 41 66q26 18 56 18q10 0 20 -2q42 -8 66 -42q18 -26 19 -56q0 -10 -2 -20q-24 -137 -24 -355v-49q0 -57 4 -170q4 -150 4 -217q0 -43 -30.5 -72.5t-72.5 -29.5t-72 29.5t-30 72.5q0 66 -4 213q-4 113 -4 172z" />
<glyph unicode="j" horiz-adv-x="518" d="M-34 -264q16 39 54 56q20 10 41 10q19 0 38 -8q40 -17 57 -56q20 -45 37 -66q8 -2 20 -2q4 16 6 39q6 55 6 146q0 150 -16 403q-6 76 -12 178q-2 31 -7 74v2v5t-1 7t-1 9.5v10.5t-1 10t-1 10v9.5v6.5q-6 82 -10 129q-8 135 -8 192q0 43 29.5 73t71.5 30t73 -30t31 -73 q0 -51 8 -178q2 -47 8 -129q4 -39 6 -70q2 -43 6 -73q6 -102 13 -179q16 -262 16 -417q-2 -223 -39 -299q-27 -53 -90 -76q-39 -14 -86 -15q-41 0 -80 11q-51 14 -82 43q-47 49 -86 139q-8 20 -8 40q0 19 7 38zM139 1380q0 31 11 64q14 41 52 60q22 10 46 10q16 0 33 -5 q35 -12 53 -43q31 -23 40 -60q3 -13 3 -25q0 -23 -10 -44q-23 -43 -56 -63q-27 -17 -56 -17q-11 0 -21 3q-41 8 -68 40q-25 33 -27 80z" />
<glyph unicode="k" horiz-adv-x="993" d="M117 125q18 66 18 174q0 33 -2 70q0 31 -4 90q-4 106 -4 155q0 616 33 994q4 44 36 70q28 24 65 23h9q43 -3 70 -36q23 -28 23 -61q0 -6 -1 -13q-30 -354 -30 -917v-37l10 10q43 45 135 125l4 4l6 4q78 68 115 105q55 55 88 104q23 35 65 43q11 2 21 2q30 0 56 -18 q34 -24 44 -65q3 -12 2 -23q0 -29 -18 -54q-43 -66 -115 -135q-41 -41 -125 -112v-2q-8 -6 -10 -9q-33 -29 -55 -49q6 -4 12 -10q16 -18 41 -43q0 -2 18.5 -21.5t22.5 -23.5q86 -90 133 -150q74 -90 113 -169q12 -22 12 -46q0 -16 -5 -32q-13 -42 -51 -60q-22 -11 -46 -10 q-16 0 -33 5q-41 13 -59 50q-31 61 -88 133q-43 53 -123 138q-6 6 -23.5 24.5t-19.5 20.5q-25 27 -43 45q-8 -14 -17 -27q-20 -35 -57 -47q0 -11 1 -22q0 -149 -26 -246q-10 -40 -46 -62q-25 -15 -51 -15q-12 0 -26 3q-40 10 -63 46q-16 24 -16 51q0 13 4 26z" />
<glyph unicode="l" horiz-adv-x="446" d="M125 1270q4 236 33 319q12 39 50 59q22 12 46 11q16 1 33 -5q41 -14 59 -52q11 -22 11 -46q0 -16 -5 -32q-18 -53 -22 -258q-1 -56 -1 -124q0 -137 5 -323q2 -104 8 -254q0 -29 2 -69q2 -61 2 -68q4 -78 4 -125q4 -129 4 -188q0 -43 -29.5 -73t-71.5 -30t-72.5 30 t-30.5 73q0 55 -5 182q0 45 -4 123v22.5t-2 30.5v14q-2 41 -2 70q-6 152 -8 256q-5 190 -5 330q0 70 1 127z" />
<glyph unicode="m" horiz-adv-x="1531" d="M150 109q0 262 2 401q4 227 20 405q2 41 35 69q30 25 67 25h8q42 -3 70 -36q24 -29 24 -65q0 -5 -1 -11q-2 -16 -2 -35q74 51 135 74q51 17 95 17q100 0 169 -85q23 -29 39 -65q123 121 223 166q68 31 128 31q88 0 155 -68q76 -76 104 -244q18 -115 21 -293v-176 q-2 -76 -2 -106q0 -43 -30 -73t-72 -30t-72.5 30t-30.5 73q0 33 2 108v170q-2 164 -18 262q-18 104 -48 135q-6 4 -10 5q-14 2 -43 -13q-98 -43 -256 -217q6 -69 6 -166v-51v-117q-2 -82 -2 -118q0 -43 -29.5 -73t-71.5 -30t-72.5 30t-30.5 73q0 39 2 122v113v42 q0 132 -11 212q-14 106 -43 141q-2 4 -4 4l-2 3h-6q-10 -2 -23 -7q-80 -27 -217 -161q-2 -35 -2 -74q-4 -137 -4 -397q0 -41 -29.5 -72t-71.5 -31t-71.5 31t-29.5 72z" />
<glyph unicode="n" horiz-adv-x="1056" d="M125 479q-3 71 -3 134q0 196 28 325q8 40 44 64q26 17 54 17q11 0 22 -2q40 -9 64 -44q18 -26 18 -57q0 -10 -2 -21q-8 -39 -14 -82q92 86 166 127q95 52 187 52q35 0 69 -7q43 -8 73 -43q16 -20 31 -49q18 -41 35 -105q23 -102 41 -270q29 -274 29 -452q0 -43 -30 -73 t-72 -30t-72.5 30t-30.5 73q0 168 -27 432q-16 156 -39 243q-6 27 -12 47q-37 -2 -82 -28q-57 -31 -141 -113q-6 -4 -20.5 -18.5t-28 -27.5t-15.5 -13q-39 -37 -63 -60q-2 -2 -6 -4q0 -18 2 -37q2 -45 6 -129q8 -182 8 -264q0 -43 -29.5 -72.5t-71.5 -29.5t-73 29.5 t-31 72.5q0 78 -8 254q-4 84 -6 131z" />
<glyph unicode="o" horiz-adv-x="1183" d="M137 520q12 207 156 348q160 158 414 158q55 0 86 -47q82 -25 147 -88q129 -127 152 -346q4 -39 4 -75q0 -173 -90 -304q-123 -183 -358 -183q-16 0 -32 1q-238 10 -372 178q-108 136 -108 316q0 21 1 42zM342 506q-1 -16 -1 -31q0 -107 62 -184q78 -96 224 -103 q8 0 16 -1q129 0 195 94q52 76 52 185q0 28 -3 58q-14 145 -90 221q-42 41 -94 41q-32 0 -68 -16q-22 -9 -42 -9q-34 0 -63 25q-53 -25 -92 -63q-88 -86 -96 -217z" />
<glyph unicode="p" horiz-adv-x="1171" d="M139 -406q0 137 17 373q2 14 4 47q8 117 12 176q4 62 4 135v50q-2 61 -10 188q-8 155 -8 260q0 52 2 92q0 43 32 72q29 27 68 27h5q42 -2 71 -33q26 -28 26 -66v-8v-37q20 18 46 33q111 74 243 74q213 0 332 -166q98 -135 98 -330q0 -188 -86 -329q-106 -172 -282 -187 q-15 -1 -29 -1q-103 0 -217 48q-55 23 -98 54q-2 -27 -4 -68q-2 -33 -5 -47q-16 -225 -16 -357q0 -43 -30.5 -72.5t-72.5 -29.5t-72 29.5t-30 72.5zM371 575q8 -131 8 -196q2 -23 2 -43q53 -14 72 -66q10 -35 92 -69q77 -31 139 -31h14q72 6 121 88q57 92 58 223 q0 129 -60 211q-57 80 -166 80q-137 0 -239 -156q-16 -23 -41 -34v-7z" />
<glyph unicode="q" horiz-adv-x="1163" d="M145 588q14 123 70 215q66 111 174 155q67 27 143 27q150 0 332 -108q2 35 4 69q4 41 37 68q30 25 67 25h8q42 -3 70 -35q24 -29 24 -65q0 -6 -1 -11q-17 -189 -17 -459q0 -119 3 -254q2 -59 4 -176q6 -289 6 -432q0 -41 -29.5 -72t-71.5 -31t-73 31t-31 72q0 141 -6 428 q-2 51 -2 80l-2 -2q-80 -66 -178 -101q-71 -24 -136 -24q-55 0 -106 17q-112 38 -188 147q-61 86 -87 202q-18 80 -18 160q0 37 4 74zM348 563q-3 -25 -3 -50q0 -55 13 -109q17 -80 56 -136q53 -75 130 -75q30 0 64 12q66 25 117 67.5t66.5 88t58.5 61.5q0 119 2 217 q-4 4 -10 6q-133 98 -240 127q-36 8 -67 8q-38 0 -68 -12q-47 -18 -78 -71.5t-41 -133.5z" />
<glyph unicode="r" horiz-adv-x="890" d="M168 133q14 84 14 213q0 84 -6 186q0 18 -2 54q-8 149 -8 248q0 49 2 86q2 44 32 72q28 27 68 26h6q43 -2 72 -34q27 -30 27 -69v-6q-2 -6 -2 -14q47 39 100 61q68 29 133 29h8q86 -4 152 -57q33 -27 38 -69q1 -7 1 -13q-1 -34 -23 -62q-26 -32 -68 -38q-7 -1 -14 0 q-34 0 -63 22q-14 12 -34.5 12t-47.5 -12q-70 -29 -104 -88q-25 -41 -72 -49q0 -16 2 -35q2 -35 2 -53q6 -106 6 -183v-36q-2 -125 -18 -226q-6 -42 -41 -66q-27 -19 -58 -18q-9 0 -19 2q-43 8 -67 40q-18 25 -18 56q0 10 2 21z" />
<glyph unicode="s" horiz-adv-x="880" d="M78 272q6 42 39 68q27 22 61 22h14q42 -6 68 -38q12 -14 25 -33q2 -2 24 -35q49 -72 76 -72q96 0 150 66q45 55 51 92q2 16 -11 35q-31 45 -178 115l-4 2l-10 5t-14.5 6t-16.5 7l-16 8t-14.5 7t-10.5 5q-66 31 -102 56q-61 41 -90 86q-28 46 -28 96q0 25 7 51 q18 63 84 127q59 53 140 72q43 9 96 9q18 0 37 -1q100 -8 170 -88q51 -59 69 -145q2 -11 2 -21q0 -29 -16 -56q-22 -36 -65 -45q-12 -2 -23 -2q-30 1 -54 17q-34 24 -44 64q-8 35 -25 57q-12 12 -27 14h-20q-70 0 -100 -26q-12 -12 -21 -23q8 -6 21 -14q27 -18 77 -43 q6 -2 16.5 -7t22 -10.5t21.5 -10.5t16 -9l8 -2q88 -41 140 -74q80 -51 120 -110q48 -68 48 -144q0 -18 -3 -37q-12 -94 -94 -194q-115 -139 -309 -139q-88 0 -160 61q-39 33 -84 98l-2 4q-4 6 -8 11.5t-8 10.5t-6 7q-8 14 -17 23q-22 29 -22 63q-1 7 0 14z" />
<glyph unicode="t" horiz-adv-x="704" d="M-16 902q4 42 38 68q29 22 65 22q6 0 11 -1q27 -4 58 -6v81q0 159 -6 292q0 43 28.5 73.5t70.5 32.5h5q40 0 68 -26q30 -28 32 -72q6 -138 6 -301v-84h60h94q43 0 72.5 -29.5t29.5 -72.5t-29.5 -73t-72.5 -30h-92h-64q-2 -72 -4 -205q-8 -313 -8 -469q0 -43 -29.5 -72.5 t-72.5 -29.5t-73 29.5t-30 72.5q0 158 9 473q2 133 4 205q-41 2 -80 8q-42 4 -68 38q-22 29 -23 65q0 5 1 11z" />
<glyph unicode="u" horiz-adv-x="1054" d="M147 465q-2 33 -2 81t2 111v15q2 58 2 101t-2 73q-1 5 -1 11q0 37 25 65q28 32 70 36h9q36 0 66 -25q32 -28 34 -69q4 -43 4 -107q0 -42 -2 -93v-13q-2 -60 -2 -103.5t2 -70.5q4 -86 29 -149q16 -45 43 -73t76 -48q40 -20 71 -19h11q25 2 49 21q55 43 92 164 q35 119 37 266v19q0 117 -23 186q-5 15 -5 30q0 22 12 46q18 38 58 52q17 6 33 5q23 -1 45 -11q38 -18 52 -59q34 -96 34 -251v-25q-3 -172 -46 -316q-55 -186 -164 -270q-83 -64 -182 -64q-75 0 -158 37q-166 74 -228 238q-35 92 -41 209z" />
<glyph unicode="v" horiz-adv-x="1019" d="M88 939q12 39 50 59q23 12 47 12q16 0 32 -4q41 -12 59 -52q18 -35 46 -82q4 -8 14 -28.5t20.5 -39t12.5 -18.5q102 -195 153 -307q6 -14 10 -26q25 59 72 165l2 3q90 203 125 305q12 40 50 60q22 12 46 12q16 0 33 -6q42 -14 60 -51q11 -23 11 -47q0 -16 -5 -32 q-39 -113 -133 -323v-4q-90 -199 -123 -297q0 -4 -2 -15v-10q-2 -10 -2 -12q-4 -27 -9 -43q-4 -14 -8 -27q-4 -10 -10 -18q-12 -20 -31 -33q-28 -20 -60 -20q-12 0 -24 3q-25 6 -43 23q-12 10 -22 25q-8 12 -19 32q-14 27 -32 72q-4 8 -7 16q-12 31 -28 70q-2 4 -5 13.5 t-6.5 15.5t-3.5 8q-10 29 -24 59q-47 106 -148 291q0 2 -10 20.5t-20.5 38t-14.5 27.5q-27 51 -45 86q-12 24 -12 49q0 15 4 30z" />
<glyph unicode="w" horiz-adv-x="1613" d="M121 840q-4 15 -4 30q1 24 13 48q20 38 60 50q15 4 29 4q25 0 49 -14q37 -20 49 -61q29 -104 134 -332q37 -82 77 -166q10 27 25 64q2 6 4 8q51 125 70 188l6 21q6 23 14 52.5t12 45.5q6 23 13 39q14 43 24 70q8 20 17 35q10 14 21 24t26 17q23 12 47 12q33 0 59 -19 q12 -8 24.5 -20t24.5 -31q16 -27 39 -71q35 -72 88 -201q8 -20 19 -45q18 -45 59 -152q23 53 72 156v2q53 111 76 166q37 88 55 162q10 40 46 62q24 14 51 15q13 1 26 -3q42 -10 64 -48q16 -26 15 -53q0 -12 -3 -25q-23 -88 -66 -190q-25 -59 -78 -174l-2 -2 q-47 -100 -69 -152q-33 -80 -52 -145q-2 -2 -2 -6q-2 -14 -4 -21q-6 -27 -14 -45q-8 -20 -25 -37q-32 -32 -77 -32h-3q-37 0 -69 24q-16 12 -28.5 29.5t-24.5 44.5q-4 10 -11 24l-2 11l-2 2q0 2 -51 132t-72 177q-8 25 -18 45q-12 33 -25 61l-4 -16q-23 -74 -78 -207l-2 -8 q-55 -131 -73 -197l-2 -2v-6q-4 -14 -6 -24q-6 -25 -13 -41q-8 -18 -20.5 -32.5t-28.5 -25.5q-25 -16 -55 -16q-27 0 -49 12q-10 6 -21 15q-6 6 -12 14q-6 6 -10 12q-4 8 -9 17q0 2 -2 4q-2 6 -6 12q0 2 -1 2t-1 2q-80 152 -170 348q-111 242 -143 361z" />
<glyph unicode="x" horiz-adv-x="1202" d="M129 81q-1 6 -1 11q0 35 22 64q94 117 266 315l20 25v2l2 2l2 2l2 2l4 4l9 10q12 14 24 29q-152 166 -258 272q-31 31 -31 74t31 72.5t73 29.5t73 -30q106 -106 245 -260q127 150 219 272q25 33 67 39q8 1 16 1q33 -1 60 -21q34 -26 40 -67q1 -8 1 -16q0 -32 -20 -59 q-100 -135 -243 -303q211 -236 331 -356q29 -29 29 -72t-29.5 -73t-71.5 -30t-73 31q-121 121 -322 342q-2 -4 -6 -8t-10 -12q-4 -6 -10 -11q-12 -16 -21 -24q-168 -197 -258 -309q-27 -33 -69 -38q-7 -1 -14 -1q-34 0 -62 22q-33 26 -37 69z" />
<glyph unicode="y" horiz-adv-x="1185" d="M82 933q14 40 53 59q22 10 44 10q17 0 35 -6q40 -15 58 -52q35 -74 93 -162q35 -55 112 -159q6 -8 6 -11q74 -100 111 -157q23 -33 41 -62q217 399 264 535q12 41 51 60q22 10 44 10q17 0 35 -6q40 -15 59 -53q10 -22 10 -44q0 -17 -6 -35q-59 -172 -327.5 -657.5 t-381.5 -626.5q-27 -33 -70 -38q-7 -1 -13 -1q-35 0 -62 23q-33 26 -37 68q-1 6 -1 12q0 35 21 63q86 106 297 479q-4 4 -8 11q-33 70 -86 149q-35 53 -107 150q0 2 -6 10q-80 111 -118 168q-63 98 -107 186q-10 21 -10 43q0 17 6 34z" />
<glyph unicode="z" horiz-adv-x="1134" d="M47 82q-1 5 -1 11q0 36 24 71q10 14 28 37q29 33 82 90q92 96 246 248q121 115 240 229q-61 -2 -109 -2q-35 0 -106 4q-31 0 -48 2h-32q-78 0 -127 -8q-8 -1 -16 -1q-32 -1 -60 19q-35 24 -42 66q-2 9 -2 18q0 31 20 58q24 35 65 43q60 9 143 9q28 0 58 -1h51 q66 -4 96 -4q53 0 129 2h45q74 2 168 2h2q6 2 10 2q14 2 27 2q29 -4 53 -21q35 -25 43 -65q2 -10 2 -21q0 -24 -10 -47q-10 -20 -29 -34q-8 -6 -14 -11q-115 -96 -414 -389q-117 -115 -198 -196q25 2 51 4q31 4 98 14q139 20 211 25q40 3 78 3q81 0 152 -12q41 -7 67 -41 q20 -26 19 -57q1 -9 -1 -19q-8 -42 -42 -67q-27 -20 -58 -20q-9 0 -18 2q-52 9 -112 9q-34 0 -71 -3q-66 -4 -196 -23q-68 -10 -103 -14q-106 -12 -186 -12h-2h-2l-6 -2h-10h-33q-33 0 -53.5 2t-36.5 8q-18 8 -35 20q-31 29 -35 70z" />
<glyph unicode="{" horiz-adv-x="776" d="M82 725q14 41 43 82q16 25 47 61l4 4l4 7q59 72 70 120q8 53 -12 183q0 8 -2 20q-16 102 -21 154q-4 96 21 164q37 94 126 141q86 43 222 43q43 0 72.5 -29.5t29.5 -71.5t-29.5 -73t-72.5 -31q-86 0 -127 -20q-20 -10 -29 -31q-10 -29 -8 -82q2 -39 18 -131q0 -2 2 -21 q12 -76 17 -120q4 -74 -6 -129q-12 -70 -50 -131q-20 -35 -63 -86l-4 -7l-6 -6q-12 -14 -21 -24q10 -10 12 -11q4 -4 7 -6q31 -27 47 -43q33 -33 45 -57q41 -90 33 -242q-2 -47 -11 -119q0 -4 -1 -12t-1 -16l-2 -6q-2 -16 -2 -29q-10 -92 -10 -152q-2 -82 12 -135 q14 -51 41 -76q29 -25 88 -24q43 0 73 -29.5t30 -72.5t-30 -73t-73 -30q-135 0 -223 76q-74 66 -102 178q-23 80 -21 188q0 70 10 170q2 12 4 33v4q0 4 1.5 9.5t2.5 11.5t1 8q6 66 8 106q6 92 -10 138q-2 2 -7 6q-12 12 -39 33q-2 4 -6 6q0 2 -12 12t-23.5 20.5t-15.5 12.5 q-14 12 -21.5 20t-13.5 15q-6 8 -12 18q-18 41 -4 82z" />
<glyph unicode="|" horiz-adv-x="765" d="M426 1016q2 256 29 467q6 43 38.5 68.5t74.5 20.5t68.5 -38t20.5 -76q-25 -199 -26 -444q0 -186 12 -461q4 -66 10 -195q23 -420 23 -622q0 -43 -30 -73t-73 -30t-72.5 30t-29.5 73q0 197 -22 612q-6 129 -11 195q-12 279 -12 473z" />
<glyph unicode="}" horiz-adv-x="765" d="M55 1642.5q4 43.5 37 70t76 22.5q217 -20 287 -209q25 -66 30 -158q2 -55 0 -156v-14q-4 -90 -2 -131q2 -61 13 -98q6 -20 39 -68q12 -18 30 -41q4 -4 30 -36.5t32 -41.5q16 -20 24 -34q18 -29 25 -54q10 -49 -21 -90q-6 -8 -14 -14l-4 -4q-2 0 -2 -2q-45 -47 -72 -142 q-23 -80 -37 -227q-2 -18 -6 -61q-12 -113 -20 -170q-14 -96 -39 -162q-33 -90 -90 -144q-68 -66 -166 -81q-41 -6 -76 18.5t-42 65t17.5 75.5t67.5 43q35 4 57.5 26.5t38.5 68.5q18 47 29 120q8 51 18 158q4 45 7 66q18 164 45 260q31 106 82 180q-6 8 -16.5 21.5 l-17.5 22.5t-12 13q-20 27 -36 49q-51 74 -68 127q-16 61 -20 148q-2 47 2 145v15q2 90 0 137q-4 61 -19 98q-12 35 -33 51q-29 20 -82 27q-41 4 -68.5 35.5t-23.5 75z" />
<glyph unicode="~" horiz-adv-x="1372" d="M221 1460q68 207 254 228q63 8 148 -9q43 -10 139 -37q47 -12 72 -18q106 -27 165.5 -17.5t100.5 60.5q27 35 69.5 39t75.5 -22.5t37 -68.5t-20 -75q-94 -117 -240 -137q-96 -12 -238 22q-29 6 -79 21q-86 25 -121 33q-53 10 -86 6q-27 -4 -41 -17q-25 -20 -41 -71 q-14 -41 -52 -60.5t-78 -5t-59.5 52t-5.5 76.5z" />
<glyph unicode="&#xa3;" horiz-adv-x="1316" d="M33 693q0 42 29.5 73t72.5 31q59 0 135 -6q-25 66 -37 108q-27 84 -32 152q-20 184 80 323q90 123 241 164q135 39 277 -2q143 -41 233 -147q102 -119 103 -279q0 -43 -30 -72.5t-73 -29.5t-72.5 29.5t-29.5 72.5q0 84 -53 145q-51 59 -135.5 84t-166 2.5t-129.5 -88.5 q-55 -74 -43 -180q6 -49 25 -115q12 -41 45 -129q6 -18 10 -28q6 -14 11 -27q158 -10 256 6q41 8 75.5 -16.5t41.5 -66.5t-17.5 -76.5t-67.5 -40.5q-100 -18 -231 -15q2 -16 4 -33q10 -104 -18 -194h4q59 -14 153 -53q78 -31 107 -41q70 -20 119 -11q63 12 133 84 q31 31 73.5 31t72.5 -30.5t30 -72.5t-31 -73q-113 -113 -235 -139q-102 -23 -222 14q-39 12 -123 47q-82 33 -126 43q-43 12 -82 13q-27 -20 -72 -48q-2 -2 -6 -4h-4q-2 -2 -2 -4q-55 -31 -70 -47q-27 -35 -69 -39t-74.5 22.5t-37.5 68.5t21.5 75t65.5 62q23 14 61 36 q2 2 6 4.5t9 4.5q20 12 32 20q16 27 43 39q0 2 2 2q45 72 35 170q-2 33 -12 68q-135 12 -203 12q-43 0 -72.5 29.5t-29.5 71.5z" />
<glyph unicode="&#xa8;" horiz-adv-x="1001" d="M233 1276q-6 27 0 53q4 16 13 33q10 18 28 33q57 53 129 49q41 -2 70 -34t27 -73q-3 -59 -54 -86q-29 -59 -92 -59q-29 0 -53 10q-53 20 -68 74zM653 1286q0 23 6 43q8 27 31 60q25 35 66 43t75 -17h3q23 -8 38 -22q57 -47 37 -119q-10 -35 -41 -62q-18 -16 -43 -26 q-27 -12 -55 -12q-27 0 -47 8q-35 14 -53 45q-16 27 -17 59z" />
<glyph unicode="&#xa9;" horiz-adv-x="1781" d="M86 600q-47 260 57 502q115 258 367 403q104 59 184 88q58 21 109 27q10 4 22 6q195 18 359 -41t282 -188q104 -115 164 -268.5t64 -321.5q4 -170 -48.5 -325.5t-154.5 -274.5q-240 -276 -655 -254q-305 18 -512 209q-188 174 -238 438zM288 638q36 -198 175 -327 q152 -141 385 -153q313 -16 489 184q76 88 115 208t37 251q-4 133 -49 251.5t-123 204.5q-143 156 -365 168q-32 -16 -67 -8q-45 10 -121 -18q-63 -20 -152 -72q-195 -111 -280 -307q-80 -184 -44 -382zM399.5 736.5q-10.5 99.5 22.5 193.5q33 98 101.5 174t162.5 119 q215 94 488 -9q41 -16 58 -55t2 -78t-54 -56t-78 -3q-195 74 -334 12q-113 -49 -152 -168q-37 -113 19 -204q63 -104 223 -125q158 -18 227 38q33 27 76 22t68.5 -38t21.5 -75t-37 -68q-78 -63 -194 -80q-84 -14 -186 -2q-260 31 -375 221q-49 82 -59.5 181.5z" />
<glyph unicode="&#xab;" horiz-adv-x="1122" d="M137 555q-2 53 23 109q18 41 59 94q27 37 86 106q4 8 27.5 36t25.5 30q35 43 64 76q27 33 68.5 37t74.5 -23t37.5 -68.5t-22.5 -74.5q-29 -35 -64 -78q-2 -2 -25.5 -30t-29.5 -36q-53 -66 -78 -98q-27 -35 -37 -57q-2 -6 -4 -11v-4v-4q2 -6 6 -14q12 -20 41 -58 q16 -20 80 -94q66 -78 113 -137q27 -33 22.5 -75t-38.5 -68.5t-75.5 -22.5t-68.5 39q-45 55 -109.5 131t-83.5 100q-41 51 -61 89q-29 53 -31 106zM571 571q2 51 29 105q20 39 59 90q25 33 84 100q0 2 11.5 14.5t13.5 16.5q14 16 27 31q31 37 58.5 69.5t69.5 36.5 t74.5 -23.5t37 -69.5t-24.5 -75q-27 -33 -60 -71q-10 -12 -26 -31q-2 -2 -12.5 -14.5t-12.5 -14.5q-55 -66 -78 -94q-27 -37 -39 -57q-6 -14 -8 -23q0 -6 6 -16q8 -20 33 -56q23 -31 70 -92l6 -4q4 -6 11 -15t16.5 -21.5t19.5 -25t20.5 -24.5t18.5 -23.5t14 -17.5 q27 -33 23 -74.5t-38 -68.5t-76 -23t-69 39q-8 8 -21 24.5t-27.5 34t-27 34t-20.5 26.5l-10 10q-51 66 -78 103q-37 53 -53 94q-25 53 -21 106z" />
<glyph unicode="&#xad;" d="M26.5 536q6.5 42 40 68.5t74.5 20.5q68 -8 174 -9q20 2 60 2q66 2 100 3q41 0 72 -31t31 -73t-31 -71.5t-72 -29.5q-31 0 -96 -2q-39 0 -60 -2q-123 0 -204 10q-41 4 -68 38t-20.5 76z" />
<glyph unicode="&#xae;" horiz-adv-x="1830" d="M79.5 897q24.5 174 113.5 320q145 245 430 362q14 14 32 23q152 61 304.5 47.5t295.5 -97.5q129 -76 233.5 -195.5t168.5 -266.5q143 -324 49 -617q-51 -164 -177 -289t-319 -200q-207 -80 -394 -70t-345 104q-139 84 -236.5 224.5t-138.5 310.5t-16.5 344zM282.5 865 q-18.5 -134 12.5 -265t104.5 -237.5t175.5 -167.5q240 -145 562 -21q297 117 374 363q70 219 -41 471q-53 117 -136 213t-181 155q-125 72 -250 72q-8 -4 -18 -6q-362 -70 -516 -330q-68 -113 -86.5 -247zM569 1174q-2 39 23.5 69.5t66.5 36.5q18 8 41 10q88 4 190.5 -25.5 t172.5 -80.5q45 -33 72 -74q35 -53 36 -111q0 -117 -129 -215q-35 -25 -81 -43q27 -35 69 -96l4 -4q76 -106 115 -156q27 -35 22.5 -76.5t-38 -68.5t-75.5 -21.5t-69 37.5q-43 55 -123 166q-2 2 -2 4q-51 72 -78 107v-256q0 -41 -29.5 -72t-72.5 -31t-72.5 31t-29.5 72 q0 512 -13 797zM778 1081q2 -86 4 -178q8 2 19 4l4 2h6q6 2 10 4q74 16 99 35q31 25 43 43q2 2 2 4v2q-6 10 -23 21q-61 45 -164 63z" />
<glyph unicode="&#xaf;" horiz-adv-x="1124" d="M213 1301.5q2 41.5 32.5 70.5t73.5 27h136q111 -2 166 -2q135 0 213 -4q49 -2 77 -7q20 -2 35 -6q12 -2 21 -6q23 -10 39 -24q31 -31 30.5 -73t-30.5 -73q-45 -45 -107 -22h-4t-8 2q-23 2 -64 4q-74 4 -205 4q-55 0 -165 2h-144q-43 2 -70.5 34t-25.5 73.5z" />
<glyph unicode="&#xb1;" horiz-adv-x="1343" d="M70 125q2 43 33.5 71.5t74.5 26.5q197 -10 559 0q14 0 41 2q248 6 373 6q43 0 72.5 -29.5t29.5 -72.5t-29.5 -72.5t-72.5 -29.5q-121 0 -367 -7q-27 -2 -41 -2q-371 -10 -575 0q-43 2 -71.5 33t-26.5 74zM72 826q2 42 33.5 71t74.5 27q168 -8 346 -13q2 37 4 109 q4 164 5 237q0 43 29.5 73t72.5 30t72.5 -30t29.5 -73q0 -78 -4 -243q-2 -70 -4 -107q190 -4 399 -4q41 0 72 -29.5t31 -72.5t-31 -73t-72 -30q-211 0 -399 4q2 -168 23 -288q6 -43 -18.5 -77t-66.5 -41t-77 17.5t-41 65.5q-23 139 -27 328q-182 4 -354 12q-43 2 -71.5 33.5 t-26.5 73.5z" />
<glyph unicode="&#xb4;" horiz-adv-x="991" d="M451.5 1204q-1.5 43 29.5 74q31 33 94 94h3q100 96 143 150q27 33 68.5 38t74.5 -22t38 -70t-21 -75q-51 -61 -162 -170h-2q-59 -57 -88 -86q-29 -31 -72 -32t-73.5 27.5t-32 71.5z" />
<glyph unicode="&#xb7;" horiz-adv-x="530" d="M178 763q-6 40 15 79q29 53 102 78q41 12 79 -7.5t50 -60.5q2 -6 4 -14q23 -39 8 -82q-27 -78 -100 -94q-70 -16 -121 32q-31 29 -37 69z" />
<glyph unicode="&#xb8;" horiz-adv-x="868" d="M429 -407q-5 42 22 77q41 51 104 140q8 10 18 24l5 4q2 4 5 8t6 8.5t3 6.5q25 35 66.5 42t76.5 -17.5t42.5 -66.5t-17.5 -77q-4 -4 -19 -25v-2q-12 -14 -20 -26q-66 -92 -111 -148q-27 -33 -68.5 -38t-74.5 21.5t-38 68.5z" />
<glyph unicode="&#xbb;" horiz-adv-x="1103" d="M141 904q2 42 33 71t74 26.5t71.5 -34t151.5 -211.5q53 -78 86 -131q20 -29 31 -50q8 -12 12 -20q12 -31 10 -59q-4 -49 -32 -109q-23 -43 -60 -94q-23 -31 -51 -68q-14 -16 -56 -66t-44 -53q-27 -33 -69 -38t-75 22t-38 69t22 74q4 4 46 54.5t54 66.5q25 33 45 58 q27 41 41 67q4 6 6 13q-6 10 -14 24q-31 49 -84 125q-47 70 -88 127q-20 29 -33 47q-6 8 -10 12l-2 4q-29 31 -27 73zM574.5 942q9.5 41 45 63.5t77.5 13.5t65 -46q49 -82 102 -158l74 -106q37 -51 51 -80q27 -49 27 -94.5t-23 -96.5q-12 -25 -45 -78q0 -2 -6 -11t-6 -11 q-8 -14 -16 -25q-16 -29 -33 -55q-43 -74 -84 -156q-18 -39 -58 -52t-78 6.5t-51.5 59.5t5.5 77q43 88 88 167q18 29 36 60q6 12 15 26q2 0 7 9.5t7 11.5q27 43 33 59q2 2 2 4t-2 5q-8 16 -37 57q-53 76 -74 106q-55 82 -108 166q-23 37 -13.5 78z" />
<glyph unicode="&#xbc;" horiz-adv-x="2086" d="M192.5 1445q-6.5 42 19.5 76t67 40l12 2q14 2 20 2q23 4 41 6q29 2 51 0q39 0 68 -15q37 -16 55 -53q8 -16 11.5 -36.5t3.5 -47.5q0 -12 -2 -28v-7v-2v-4v-2q-2 -20 -4 -69q-8 -176 -11 -267q-2 -207 23 -356q6 -41 -18.5 -76t-66.5 -42t-76 17.5t-42 67.5 q-27 166 -25 391q2 94 11 275q2 33 2 45q-4 -2 -9.5 -2h-9.5l-4 -2q-43 -6 -76.5 19.5t-40 67.5zM508 64.5q-4 41.5 22 74.5q29 39 72 133q2 4 9 19.5t7 17.5q25 51 41 82q25 47 54 105q16 29 84.5 167t81.5 160q117 229 208 379q127 205 254 346q29 31 71 33t74 -25.5 t34 -70.5t-27 -74q-115 -127 -229 -315q-88 -143 -203 -367q-10 -20 -80 -158.5t-86 -169.5q-29 -59 -55 -108q-12 -23 -35 -70l-6 -14q-8 -16 -11 -21q-53 -119 -98 -176q-27 -33 -69.5 -38t-75.5 22t-37 68.5zM1196 221q-2 20 4 39q4 16 12 33q8 14 25 37q2 4 6 8 q6 8 17 22l6 9q70 104 217 299l2 2l6 6q145 193 211 293q25 35 65.5 43t77.5 -15l4 -4q56 -25 62 -84q4 -66 -25 -452q-4 -49 -8 -97h16q43 0 73 -29.5t30 -71.5t-30 -72.5t-73 -30.5h-36q-4 -45 -9 -74q-8 -53 -20 -76q-18 -37 -58 -51t-79 6q-35 16 -49.5 53t-0.5 74 q2 6 5 25q2 12 4 30q-20 -2 -45 -2q-152 -10 -207 -12q-45 -2 -70 -4h-22h-11q-25 2 -33 4t-26 16q-37 29 -41 76zM1495 340q35 2 98 6q45 2 78 4q4 57 9.5 122t11.5 130q-18 -23 -39 -49q-4 -6 -6 -10q-104 -135 -152 -203z" />
<glyph unicode="&#xbd;" horiz-adv-x="2035" d="M148.5 1454q-7.5 41 17 77t65.5 42q53 10 111 14q45 2 76 0q25 -2 45 -10q41 -12 63 -45q16 -23 23 -55q4 -18 6 -45q4 -39 4 -105q0 -98 -8 -270q-4 -51 -6 -115q-2 -6 -6 -82t-4 -92q-6 -80 -7 -104q0 -41 -29.5 -72t-71.5 -31t-72.5 31t-30.5 72q0 31 6 116q0 16 5 92 t5 82q4 63 6 113q8 166 8 260q0 31 -2 55q-45 -4 -84 -10q-43 -8 -77.5 16.5t-42 65.5zM502 70q2 39 33 67l2 6q12 16 28 43q35 55 90 152q104 180 256 453q346 625 394 737q16 39 55 55t79 0t55 -56t-1 -79q-51 -123 -403 -758q-152 -272 -256 -454q-57 -100 -95 -158 q-45 -74 -67 -92q-31 -29 -74 -26t-70.5 35t-25.5 75zM1217.5 682q-11.5 41 11.5 78q90 160 284 198q100 20 170 0q49 -14 97 -51q33 -27 63 -63q45 -53 49 -121q4 -55 -16 -117q-31 -90 -117 -203q-49 -63 -121 -141q-27 -29 -57 -59q25 2 39 2h8q92 0 137 -2 q49 -2 92.5 -8.5t69 -40t19 -75.5t-40 -67.5t-76.5 -19.5q-33 4 -74 6t-127 2h-6h-6q-6 0 -19 -2q-4 0 -17 -2t-25.5 -4t-14.5 -2q-25 -4 -43 -8q-63 -8 -104 -9q-33 2 -58 9q-51 12 -78 51q-16 23 -18 51q-2 20 3 39.5t15 36.5q6 8 13 16l10 10q18 20 90 93q72 74 117 122 q66 70 108 127q66 86 86 144q8 23 7 35v2v2q-37 45 -62 51q-4 2 -8 2h-21q-20 0 -43 -6q-102 -20 -147 -101q-23 -37 -62.5 -48t-77.5 10.5t-49.5 62.5z" />
<glyph unicode="&#xbe;" horiz-adv-x="2037" d="M33 852q-4 41 23.5 73.5t69.5 37t75 -23.5t37 -69q4 -51 22 -73q10 -12 27 -17q59 -12 133 43q70 49 69 92q-2 12 -14 27q-27 27 -92 49q-51 16 -66 68q-35 25 -41 65q-6 43 18.5 77t65.5 42q49 8 72 25q10 8 12 14q6 23 -22 57q-37 39 -76 37q-18 -2 -37 -14 q-27 -20 -51 -66q-18 -39 -59 -51t-79 7.5t-50.5 60.5t8.5 78q92 178 256 188q139 10 239 -104q49 -53 67.5 -120t0.5 -128q-16 -61 -63 -105q27 -18 47 -39q68 -72 69 -163q0 -74 -41 -142.5t-112 -120.5q-145 -106 -293 -77q-92 16 -148.5 87.5t-66.5 184.5zM534.5 27 q-10.5 41 10.5 77q113 199 239 457q86 176 224 471q43 94 147 262v2q55 88 80 134q41 74 65 133q18 39 57.5 54t78.5 -1.5t55 -55t-2 -77.5q-29 -72 -76 -154q-27 -49 -84 -141q-98 -160 -135 -242q-137 -297 -225 -475q-129 -264 -246 -469q-23 -35 -64 -46t-77.5 9.5 t-47 61.5zM1145 217q-2 31 8 62q8 18 18 36q14 25 41 58q8 8 17 18l35 39q12 16 14 21q68 96 211 272l2 2l2 4q125 154 178 229q6 31 28.5 53.5t53.5 28.5q41 6 74 -15t45 -58q0 -4 2 -9q2 12 4 39q0 -18 -2 -47q6 -28 -4 -55q-2 -39 -4 -96q-10 -152 -19 -297 q-6 -104 -10 -178q12 -2 23 -5q43 -6 67.5 -40.5t17 -76.5t-42 -66.5t-75.5 -16.5h-4q-4 -68 -6 -78q-6 -43 -41 -67.5t-77 -17.5t-66.5 42t-18.5 76q0 2 2 6q0 10 2 31v18q-23 0 -51 -2q-25 -2 -74 -4q-123 -6 -180 -6h-6h-2q-14 -2 -25 -2q-29 0 -49 6q-23 4 -43 18 q-39 29 -45 78zM1442 326q18 0 41 2q51 2 78 4q38 2 73 2q4 80 11 180l4 82l-2 -2q-137 -170 -199 -260q-4 -4 -6 -8zM1878 997q2 12 2 27q0 -2 -2 -27z" />
<glyph unicode="&#xe0;" horiz-adv-x="1159" d="M114.5 471q6.5 109 51.5 211q45 106 122 184t173 109q197 66 397 -76q2 14 2 29q2 43 33 71.5t74 26.5t71.5 -32.5t26.5 -73.5q-8 -170 0 -478v-43q4 -207 4 -311q0 -43 -29.5 -72.5t-71.5 -29.5t-73 29.5t-31 72.5v31q-145 -129 -362 -111q-133 12 -225.5 80t-135.5 180 q-33 94 -26.5 203zM334 338q43 -113 186 -125q156 -14 244 96q37 47 98 37q-2 20 -2 49v43q-4 137 -4 226q-36 1 -65 26q-78 72 -152 92q-59 16 -113 -2q-53 -16 -98 -63t-74 -117q-63 -143 -20 -262zM343 1457q3 42 36 69.5t74.5 25t70.5 -35.5q29 -35 82 -95q2 -2 8 -10 l2 -2q98 -109 146 -170q27 -33 22.5 -75t-38 -68.5t-75.5 -21.5t-69 38q-45 57 -137 160q-6 8 -10 12q-57 63 -86 98q-29 33 -26 75z" />
<glyph unicode="&#xe1;" horiz-adv-x="1150" d="M121 399q-45 203 61 383q53 88 134 146.5t176 72.5q184 31 362 -100v2q-2 43 26.5 75t70.5 33t74 -28t34 -70q6 -164 -4 -462q0 -10 -2 -27q-6 -213 -6 -320q0 -41 -31 -71.5t-72 -30.5q-37 0 -64.5 22.5t-35.5 57.5q-80 -53 -154 -74q-147 -41 -297 43 q-223 123 -272 348zM322 444q29 -135 170 -215q78 -41 140 -25.5t163 95.5q23 18 51 23q0 43 2 110q2 16 2 25q4 133 6 215q-45 -5 -78 26q-131 121 -254 101q-102 -16 -166 -121q-66 -111 -36 -234zM483.5 1185q-8.5 42 14.5 77q113 168 231 282q31 29 74 28t71.5 -32 t27.5 -73.5t-32 -71.5q-102 -96 -200 -246q-25 -37 -66 -45t-76.5 15.5t-44 65.5z" />
<glyph unicode="&#xe2;" horiz-adv-x="1150" d="M66.5 435q-11.5 112 23.5 218q35 111 110.5 193t180.5 119q219 76 473 -76q2 23 2 45q2 41 34 69.5t74 26.5t70.5 -32.5t26.5 -73.5q-6 -168 -4 -428v-138q2 -176 2 -264q0 -41 -30 -71.5t-72 -30.5t-72.5 30.5t-30.5 71.5v12.5v12.5q-39 -37 -92 -62q-90 -41 -191 -41 q-147 0 -259.5 56.5t-176.5 160.5q-57 90 -68.5 202zM285 590q-45 -139 24 -250q74 -119 262 -119q55 0 102.5 21.5t61.5 52.5q16 33 50 48t67 7v6v138q-2 98 -2 176q-33 -2 -62 18q-106 72 -200 90q-76 14 -139 -6q-57 -20 -100.5 -67.5t-63.5 -114.5zM313 1232q0 42 29 73 q16 14 43 43q0 2 4 8l6 4q51 55 82 82q47 45 96 71q4 6 11 11q31 29 72.5 27t70.5 -33q49 -53 129 -154q4 -6 10 -12q4 -6 8 -13q37 -45 62 -73q27 -33 22.5 -75t-37 -69.5t-74.5 -23.5t-69 37q-25 31 -63 77q-4 6 -10 13l-3 4q-6 6 -6 8q-37 45 -59 74q-33 -27 -92 -92 l-4 -5q-6 -4 -6 -6q-29 -31 -48 -49q-31 -29 -72.5 -29t-71.5 30t-30 72z" />
<glyph unicode="&#xe3;" horiz-adv-x="1165" d="M93 440q-3 119 36 230q41 119 119 205t180 122q213 72 442 -98q0 18 2 39q2 43 33 71.5t73 26.5t71.5 -32.5t27.5 -73.5q-4 -72 -14 -225q-8 -119 -10 -183q-12 -254 14 -413q6 -43 -18.5 -77t-66.5 -41t-76 17.5t-42 65.5q-2 14 -4 26q-20 -18 -43 -32 q-129 -90 -268 -91q-143 0 -248.5 64.5t-161.5 181.5q-43 98 -46 217zM231.5 1239q-8.5 41 14.5 78q92 135 227 139q49 2 107 -16q29 -8 88 -31q84 -35 120 -35q47 0 95 47q31 29 72.5 29t72.5 -29.5t31 -71.5t-31 -73q-109 -109 -242 -107q-51 0 -108 17q-33 10 -86 33 q-88 35 -115 32q-12 0 -20 -6q-18 -12 -41 -43q-23 -35 -65 -43t-76.5 15.5t-43 64.5zM324 602q-57 -164 2 -293q59 -127 223 -127q74 0 150.5 52.5t123.5 132.5q8 16 21 26q0 63 4 139q2 55 8 134q-32 3 -57 26q-94 86 -181 111q-68 20 -124 0q-53 -18 -99.5 -71.5 t-70.5 -129.5z" />
<glyph unicode="&#xe4;" horiz-adv-x="1181" d="M99 535q1 116 42 213q53 115 155.5 179t242.5 64q180 0 315 -100q2 23 4 45q6 41 39 67.5t76 21.5t68.5 -38t21.5 -76q-18 -152 2 -405q2 -31 8 -90q18 -229 19 -344q0 -43 -30 -73t-72 -30t-72.5 30t-30.5 73v75q-233 -205 -453 -143q-102 29 -179 111t-120 198 q-37 106 -36 222zM296 1362q13 41 51 59.5t78 5t60 -52.5q0 -2 1 -4t6 -8q18 -35 26 -57q12 -41 -6 -79t-59 -51.5t-79 5t-50 59.5q-4 8 -15 29q-2 6 -4 8l-4 8q-18 37 -5 78zM330 381q25 -72 66.5 -119t92.5 -61q53 -14 119 8q84 33 178 125q35 37 84 28q0 16 -2 35 q-6 61 -8 92q-6 86 -10 154q-41 4 -68 37q-88 106 -243 106q-154 0 -209 -122q-55 -125 0 -283zM707 1317q-14 39 3 78t57 53t79 -4.5t53 -57.5q8 -27 29 -69q0 -6 4 -12l4 -11q2 -4 2 -6q18 -39 2 -79t-55 -56t-78 -1t-57 54q0 4 -2 6q0 2 -5 13q-2 6 -4 10q-23 49 -32 82z " />
<glyph unicode="&#xe6;" horiz-adv-x="1759" d="M111 137q-90 150 30 324q45 66 122 115t151 59q72 10 145 -4q47 -10 117 -35q2 0 6 -2h2q2 0 2 -2q23 -6 37 -10q-16 70 -31 112q-23 66 -53 94q-29 29 -80 31q-78 2 -205 -47q-41 -16 -79.5 1.5t-54 57t2 78t56.5 54.5q168 66 288 61q129 -6 213 -88q35 -33 62 -78 q88 84 198.5 125t221.5 27q154 -20 249 -138q94 -115 99 -294q8 -14 12 -31q6 -43 -18.5 -77t-67.5 -42q-236 -39 -569 -6q27 -94 63 -146q59 -88 193 -88q74 0 143.5 37t120.5 103q27 33 69.5 38t75.5 -22t37 -69t-20 -76q-82 -100 -194 -157.5t-232 -57.5q-225 0 -346 155 q-78 -94 -207 -139q-152 -53 -312 -20q-176 37 -247 157zM279 274q-2 -18 6 -30q27 -45 114 -64q104 -20 203 15q100 35 141 112q10 25 33 39l-4 12h-2q-57 8 -152 41l-2 2h-4q-2 2 -4 2q-57 18 -86 25q-43 8 -82 4q-29 -4 -69.5 -30.5t-61.5 -55.5q-27 -41 -30 -72z M920 633q256 -33 481 -15q-10 78 -49 125q-43 53 -117 64q-84 10 -170 -37t-145 -137z" />
<glyph unicode="&#xe7;" horiz-adv-x="1091" d="M139 552.5q8 115.5 60 207.5q59 113 167.5 173t254.5 60q109 0 192 -41q102 -49 156 -147q18 -39 6 -79t-50 -60.5t-78.5 -7t-60.5 50.5q-41 80 -165 79q-174 0 -242 -124q-66 -121 -19 -277q23 -70 65 -120t95 -68q57 -20 127 -4q90 23 191 102q33 27 74.5 22.5 t68.5 -38t21.5 -75.5t-37.5 -69q-272 -217 -512 -133q-102 37 -177 122t-110 202q-35 109 -27 224.5zM349 -415q-13 40 5 79q20 41 60 103q8 14 22 34q47 72 62 99q23 37 63.5 48t77.5 -9.5t47 -61.5t-10 -78q-18 -33 -68 -108q-12 -20 -20 -35q-33 -51 -51 -84 q-18 -39 -58.5 -52.5t-78.5 6t-51 59.5z" />
<glyph unicode="&#xe8;" horiz-adv-x="1189" d="M129 612q37 162 147 267q106 98 248 112q143 14 267 -63q127 -82 186 -240q2 -2 2 -6q2 -4 4 -6q4 -10 6 -21q6 -12 8 -26q10 -29 10.5 -53.5t-3.5 -45.5q-12 -37 -43 -61q-23 -16 -54 -23q-16 -4 -39 -6q-29 -4 -71 -2q-23 0 -54 2h-6h-12h-8h-15q-25 0 -88 -4 q-41 -2 -63 -4q-66 -2 -115 2q-66 8 -117 33q6 -113 80 -191q111 -117 295 -96q53 6 146 101l10 10t10 8q10 12 21 20q29 31 53 50q33 27 75 22.5t68.5 -38.5t22.5 -75.5t-37 -68.5q-16 -12 -39 -35l-18 -18l-10.5 -10.5l-10.5 -10.5q-63 -63 -108 -94q-76 -53 -158 -64 q-141 -16 -265 29t-205 131t-116 212t-4 263zM270 1454q-2 43 27 74t70.5 33t72.5 -27q72 -63 113 -109q72 -76 104 -141q18 -37 5 -77t-51 -59.5t-78.5 -6t-59 52.5t-70.5 92q-37 39 -100 96q-31 29 -33 72zM365 664q23 -3 41 -13q39 -18 137 -14q20 2 57 4q70 4 102 4h23 h8t12 -2h7h22q-37 74 -94 113q-63 39 -135 32q-72 -8 -129 -61q-29 -27 -51 -63z" />
<glyph unicode="&#xe9;" horiz-adv-x="1087" d="M115 625q55 221 243 336q121 76 267 24q109 -37 209 -133q86 -84 131 -174q27 -49 32 -92q4 -33 -4 -62q-10 -43 -47 -69q-18 -14 -47 -23q-12 -4 -31 -6q-29 -4 -75 -8q-74 -4 -193 -6q-174 -4 -287 0q6 -23 17 -43q43 -86 131 -130t180 -28q100 20 174 111 q25 33 68 36.5t75.5 -23t37.5 -68.5t-21 -74q-121 -150 -295 -183q-162 -31 -311.5 44t-221.5 225q-80 160 -32 346zM326 616q111 -2 272 0q96 3 164 7q-31 43 -72 82q-68 66 -131 88q-55 18 -94 -7q-98 -59 -139 -170zM427 1243q-9 41 15 76q59 88 176 203q18 20 58 57 q31 29 74 28t71.5 -32t28.5 -72.5t-31 -70.5q-39 -37 -57 -56q-102 -100 -150 -170q-23 -35 -64.5 -43t-76.5 15.5t-44 64.5z" />
<glyph unicode="&#xea;" horiz-adv-x="1064" d="M82 518q6 201 147 344q150 147 318 146q141 -2 260 -107q96 -84 143 -194q23 -57 25 -105q2 -33 -8 -61q-14 -43 -52 -68q-20 -12 -47 -18q-14 -4 -30 -4q-20 0 -50 2q-10 0 -24 2h-10h-11q-4 2 -6 2h-2q-49 0 -151 6q-41 4 -62 4q-135 8 -209 -10q-12 -2 -24 -2 q12 -80 59 -142q63 -82 162 -90q123 -8 268 107q33 27 75 21.5t68.5 -38t21.5 -74.5t-38 -69q-207 -166 -409 -152q-190 14 -312 170q-109 143 -102 330zM246 1255.5q12 36.5 47 57.5l2 2q6 6 18 16q16 16 60 62l2 2q51 53 74 75q23 20 39 31.5t32 16.5q18 6 35 6 q33 2 59 -15q129 -80 275 -227q31 -29 31 -72t-30 -72.5t-73 -29.5t-72 29q-90 92 -182 157l-41 -41v-2l-65 -65q-43 -43 -72 -56q-39 -18 -79 -1.5t-56 55.5q-16 35 -4 71.5zM336 670q78 8 199 2q20 -2 63 -4q94 -6 137 -6h8q-29 47 -69 83q-66 55 -129 58q-82 0 -170 -86 q-23 -23 -39 -47z" />
<glyph unicode="&#xeb;" horiz-adv-x="1099" d="M109 410q-43 182 63 366q119 205 299 230q150 18 299 -88q117 -82 188 -203q35 -57 48 -109q6 -35 2 -65q-6 -47 -37 -80q-27 -25 -64 -37q-25 -8 -55 -12q-41 -4 -100 2q-23 0 -56 4q-59 6 -67 6q-78 0 -228 12h-2q-57 6 -88 8q25 -84 103 -135q86 -59 190 -49 q119 12 219 113q31 29 73 28.5t71.5 -30t29.5 -72.5t-28 -72q-152 -152 -346 -170q-178 -18 -326 82q-147 102 -188 271zM283 1357q12 40 49 60.5t78 8t61 -49.5q4 -6 8 -14v-2q6 -10 6 -12q12 -20 19 -29q0 -2 2 -2q27 -33 21.5 -75t-38 -68.5t-74.5 -22.5t-69 37l-4 4 q-18 25 -37 61l-8 13l-6 12q-20 39 -8 79zM336 647q29 -2 82 -6h2q139 -12 209 -12q14 0 43 -2q8 -2 22 -2q12 -2 23 -4q31 -2 49 -5h14q-51 80 -129 136q-84 59 -151 51q-37 -6 -70 -31q-43 -33 -82 -100q-6 -12 -12 -25zM669 1375q13 40 50 60.5t78 7.5t59 -50 q18 -33 33 -47q29 -31 29 -73t-30 -72t-72 -30t-73 29q-37 37 -67 96q-20 39 -7 79z" />
<glyph unicode="&#xec;" horiz-adv-x="446" d="M-40 1404q-5 42 22.5 74.5t69.5 38t75 -23.5q70 -55 147 -172q6 -8 15 -23q2 -2 8 -12l6 -8q25 -37 16.5 -78t-44 -64.5t-76.5 -15.5t-66 43q0 2 -6 11.5t-8 11.5q-8 12 -15 20q-61 92 -106 129q-33 27 -38 69zM137 129q0 106 4 254q0 47 4 141q6 260 7 387q0 43 30.5 73 t72.5 30t71.5 -30t29.5 -73q0 -129 -6 -393q-4 -94 -4 -141q-4 -143 -4 -248q0 -43 -29.5 -72.5t-72.5 -29.5t-73 29.5t-30 72.5z" />
<glyph unicode="&#xed;" horiz-adv-x="649" d="M154 537q2 59 4 176q2 127 2 186q0 43 29.5 72.5t71.5 29.5t73 -29.5t31 -72.5q0 -61 -3 -188q-2 -117 -4 -174q0 -244 27 -402q6 -41 -18.5 -75.5t-66.5 -42t-76 17t-42 67.5q-29 174 -28 435zM193.5 1243q-5.5 43 21.5 76q10 12 25 29q4 6 12 14l6 6q4 6 4 8 q78 92 107 144q18 37 59 49t79 -8.5t49 -61.5t-9 -78q-37 -68 -127 -176q0 -2 -6 -8l-4 -6q-8 -8 -13 -14q-12 -14 -22 -27q-27 -33 -69 -38t-74.5 21.5t-38 69.5z" />
<glyph unicode="&#xee;" horiz-adv-x="657" d="M-22.5 1179q-4.5 42 22.5 74q23 29 68 84h2q86 102 123 156q18 29 48.5 40t61.5 3q31 0 58.5 -17.5t37.5 -48.5q18 -47 88 -133q0 -2 2 -4q41 -53 62 -84q25 -35 16.5 -77t-44.5 -65.5t-78 -14t-64 44.5q-16 23 -53 69q0 2 -2 2q-31 41 -47 62q-20 -25 -54 -66 q-45 -53 -65 -78q-27 -35 -69 -39t-75.5 23t-38 69zM172 111v192v209q2 266 2 399q0 43 29.5 73t72.5 30t73 -30t30 -73q0 -133 -2 -401v-209v-190q0 -43 -31 -73t-73 -30t-71.5 30t-29.5 73z" />
<glyph unicode="&#xef;" horiz-adv-x="620" d="M4 1321q2 16 8 49q10 41 46 63.5t78 13.5t64.5 -45t12.5 -79q-2 -4 -2 -6q23 -31 19.5 -69t-29.5 -64q-31 -31 -73 -31t-73 31q-29 29 -41 61q-14 37 -10 76zM150 672q0 125 12 233q4 41 37.5 67.5t75.5 21.5t69 -37.5t21 -75.5q-18 -154 0 -420q2 -16 4 -51 q14 -199 14 -304q0 -43 -29.5 -72.5t-72.5 -29.5t-73 29.5t-30 72.5q0 96 -14 289q-2 35 -4 51q-8 137 -10 226zM285 1370q12 41 49 61.5t78 8.5t61 -49q6 -14 14 -31q4 -6 11 -21q10 -27 18 -36q23 -37 12.5 -78t-46.5 -63.5t-76.5 -13.5t-63.5 46q-14 23 -33 63 q-6 12 -8 17q-4 10 -8 18q-20 37 -8 78z" />
<glyph unicode="&#xf1;" horiz-adv-x="1079" d="M125 1239q-16 39 0 78t55 55q121 51 236 43q74 -6 166 -41q2 0 18 -6t18 -8q18 -6 29 -8q20 -6 29 -6q12 2 31 20q29 31 71.5 31t72.5 -31t30 -73t-31 -72q-70 -70 -156 -78q-47 -4 -104 12q-18 4 -41 14q-6 0 -23 7l-16 8q-66 25 -109 26q-68 4 -143 -26q-39 -16 -78 0 t-55 55zM135 477q-2 256 6 422q2 43 33 71.5t74 26.5t70.5 -33.5t25.5 -74.5v-21q6 6 12 13q121 104 260 116q102 10 183 -45q66 -47 108 -137q59 -123 76 -342q10 -119 8 -309q-2 -53 -2 -70q0 -41 -29.5 -71.5t-71.5 -30.5t-73 30.5t-31 71.5q0 18 2 72q2 182 -6 291 q-14 180 -57 270q-20 41 -43 57q-16 12 -43 11q-74 -8 -148 -70q-57 -51 -131 -156q-8 -12 -18 -20v-70q0 -41 2 -125q2 -168 2 -252q0 -41 -30.5 -71.5t-72.5 -30.5t-72 30.5t-30 71.5q0 84 -2 250q-2 84 -2 125z" />
<glyph unicode="&#xf2;" horiz-adv-x="1179" d="M123 528q18 211 172 351q170 152 434 141q53 -4 82 -51q123 -53 199 -174q92 -152 80 -344q-12 -199 -132 -330q-137 -154 -354 -141q-242 12 -379 184q-123 158 -102 364zM326 510q-10 -127 61 -219q78 -100 227 -107q121 -8 193 74q70 78 78 205q8 129 -51 223 q-57 96 -164 113q-19 2 -37 12q-121 -14 -201 -86q-94 -84 -106 -215zM378 1424.5q-5 41.5 22.5 74.5t69.5 38t75 -24l76 -59q55 -41 88 -76q51 -51 77 -104q18 -37 5 -77t-51 -59.5t-77.5 -6t-60.5 52.5q-20 43 -106 110q-63 47 -80 62q-33 27 -38 68.5z" />
<glyph unicode="&#xf3;" horiz-adv-x="1142" d="M117 362q-70 190 14 375q82 176 256 250q179 74 365 0q27 0 51 -10q174 -88 229 -301q47 -182 -10 -373q-59 -203 -207 -291q-178 -106 -387 11q-236 133 -311 339zM309 432q49 -135 219 -231q104 -59 181 -13q80 47 118 174q41 135 9 261q-29 109 -105 157q-21 0 -39 8 q-119 53 -225 9q-100 -41 -150 -146q-49 -109 -8 -219zM485.5 1169q-8.5 41 15 77t68.5 93q2 2 4 7q2 2 7 6q68 86 90 131q20 37 61 50t78 -7.5t50 -60t-7 -76.5q-33 -61 -113 -164l-2 -4l-2 -2q-4 -4 -6 -7q-39 -51 -59 -79q-23 -35 -65 -43.5t-76.5 15t-43 64.5z" />
<glyph unicode="&#xf4;" horiz-adv-x="1142" d="M119 344q-45 176 43 354q86 176 252 258q186 94 389 15q43 -17 59 -64q127 -94 172 -250q51 -178 -22 -356q-74 -186 -238 -264q-186 -88 -399 12q-205 94 -256 295zM269 1203q-5 42 22 77q2 2 24.5 29.5t28.5 36.5q98 123 176 180q29 20 66 18q33 20 72.5 13.5 t62.5 -37.5q106 -137 190 -224q31 -31 31 -72.5t-29.5 -72.5t-72.5 -31t-72 31q-76 76 -160 182q-43 -39 -104 -116q-6 -6 -28.5 -35t-24.5 -31q-27 -33 -69 -38t-75 21.5t-38 68.5zM317 395q29 -106 146 -162q125 -59 223 -12q92 43 137 156q45 115 15 225 q-35 115 -146 170q-19 11 -33 27q-80 12 -155 -27q-102 -49 -158 -164q-55 -111 -29 -213z" />
<glyph unicode="&#xf5;" horiz-adv-x="1167" d="M119 633q55 201 243 303q199 109 467 49q47 -12 70 -55q104 -70 150 -197q55 -160 7 -346t-175 -297q-154 -133 -346 -86q-250 63 -365 252q-106 176 -51 377zM216 1248q-3 42 24 75q92 104 219 113q45 2 100 -9q29 -6 86 -20q86 -23 127 -23q53 0 100 39q33 27 76 22 t68.5 -38t21.5 -75t-37 -68q-102 -82 -225 -84q-47 -2 -100 8q-31 6 -84 20q-90 25 -123 23q-39 -2 -74 -43q-29 -31 -70.5 -34t-73.5 24.5t-35 69.5zM315 578q-31 -115 29 -216q72 -117 242 -159q88 -23 159 41q80 70 113 195.5t-2 224.5q-33 94 -121 118q-19 5 -33 17 q-139 12 -241 -43q-113 -61 -146 -178z" />
<glyph unicode="&#xf6;" horiz-adv-x="1191" d="M85 511q1 114 48 208q90 182 313 244q180 49 373 6h4q49 0 82 -39q219 -274 197 -527q-10 -115 -69.5 -207t-155.5 -149q-92 -53 -199 -67.5t-209 14.5q-113 33 -202 110.5t-140 196.5q-43 96 -42 210zM269 1290.5q-9 40.5 13.5 77.5t63.5 46.5t76 -13.5q10 -6 22 -12 q2 -2 7 -5l4 -2q39 -25 59 -36q35 -25 44 -67t-14.5 -77t-65.5 -43t-77 15q-16 12 -51 32q-4 2 -6 2l-4 4q-14 8 -25 15q-37 23 -46 63.5zM288.5 508q0.5 -68 24.5 -125q68 -152 211 -190q131 -37 248 30q115 68 125 199q14 155 -129 348q-139 31 -266 -4 q-135 -39 -187 -139q-27 -51 -26.5 -119zM644 1349q1 42 32 71.5t72.5 28.5t70.5 -32q16 -16 45 -49q0 -2 2 -2q31 -35 45 -51q31 -31 31 -73t-29.5 -71.5t-72.5 -29.5t-72 28q-23 20 -57 62q0 2 -2 4q-25 27 -37 41q-29 31 -28 73z" />
<glyph unicode="&#xf7;" horiz-adv-x="1290" d="M75 830q7 42 42 66.5t76 18.5q197 -31 516 -24q43 0 133 2q172 4 258 4q41 0 71.5 -29.5t30.5 -71.5t-30.5 -73t-71.5 -31q-84 0 -252 -4q-90 -2 -135 -2q-338 -8 -553 27q-41 8 -66.5 41.5t-18.5 75.5zM475 1157q-16 39 1.5 78t56 54t77.5 -1q2 0 6 -2q2 0 7 -2l2 -2 q4 -2 8 -2q57 -25 90 -51.5t38 -68.5t-21.5 -75.5t-68.5 -38t-77 22.5q-10 8 -41 23q-4 0 -8 2l-2 2q-4 2 -6 2q-4 2 -7 2q-39 18 -55 57zM490 517q-3 42 25 74t69.5 36t74.5 -25q2 -2 13 -10l8 -8q16 -14 25 -21q4 -2 8 -2v-2q43 -8 65.5 -44t13 -78t-45 -64.5t-76.5 -12.5 q-39 8 -76 31q-20 14 -47 37q-2 2 -10.5 9t-10.5 9q-33 29 -36 71z" />
<glyph unicode="&#xf9;" horiz-adv-x="1026" d="M145 920q12 41 49 61t78 9t61.5 -49t8.5 -79q-82 -293 0 -493q29 -72 76 -116t96 -52q43 -4 80 16q47 29 82 96q96 190 33 566q-6 41 18.5 75.5t66.5 42t76.5 -18.5t40.5 -67q74 -440 -53 -690q-59 -121 -158.5 -179t-214.5 -44q-106 16 -194 94t-139 199 q-109 266 -7 629zM238.5 1391.5q-15.5 40.5 1 79t55.5 54t78 -0.5q45 -18 88 -54q23 -18 61 -55l2 -2q43 -41 66 -57q35 -23 43 -65t-15.5 -76.5t-64.5 -43t-78 14.5q-37 25 -92 80h-2l-2 2q-55 55 -86 67q-39 16 -54.5 56.5z" />
<glyph unicode="&#xfa;" horiz-adv-x="1073" d="M145 698q-12 121 0 207q4 41 38 66.5t76 20.5t68.5 -38.5t20.5 -76.5q-8 -59 2 -158q2 -23 8 -66q8 -78 13 -116q14 -178 53 -254q43 -86 149 -86h7q63 0 73 12q94 100 119 309q23 197 -24 359q-10 41 10 77.5t60 49t78 -9t48 -60.5q59 -203 31 -438q-33 -276 -170 -426 q-49 -53 -123 -70q-37 -8 -102 -8h-7q-231 0 -331 196q-37 70 -56 168q-12 68 -20 166q-2 33 -12 105q-4 47 -9 71zM432 1215.5q0 41.5 31 72.5q10 12 26 27l39 39q111 115 181 172q33 27 74.5 22.5t69.5 -36t23.5 -74.5t-36.5 -70q-62 -52 -166 -158q-23 -23 -39.5 -39 t-28.5 -28q-29 -31 -71.5 -31t-72.5 31t-30 72.5z" />
<glyph unicode="&#xfb;" horiz-adv-x="1097" d="M152 911q8 43 43.5 65.5t76.5 14.5t64.5 -44t15.5 -77q-68 -317 25 -516q35 -72 82 -111.5t98 -43.5q106 -8 178 127q102 193 53 542q-6 41 20 76t68 40t75.5 -19.5t39.5 -67.5q59 -418 -73 -668q-63 -119 -162 -181t-213 -54q-109 8 -202 79.5t-148 192.5 q-121 262 -41 645zM227 1215.5q-4 41.5 25 74.5q109 131 211 232q31 29 74 27.5t71 -31.5q6 -6 10 -13q11 -4 19 -10q39 -31 104 -90l4 -4q49 -45 76 -66q33 -27 38 -69.5t-21.5 -75.5t-68.5 -38t-74.5 21.5t-88.5 75.5q0 2 -2 4q-43 39 -63 56q-63 -66 -133 -150 q-27 -33 -69 -36t-75 24t-37 68.5z" />
<glyph unicode="&#xfc;" horiz-adv-x="1083" d="M160 915q8 41 43 66t77 16.5t65 -43t15 -77.5q-59 -313 17 -515q55 -152 155 -180q86 -23 156 60q100 115 100 354v55q2 53 0 80q0 82 -14 125q-14 41 4.5 79t59.5 51t78.5 -5t50.5 -59q25 -74 26 -187q2 -31 0 -88v-51q0 -315 -149 -490q-74 -84 -171.5 -115.5 t-195.5 -4.5q-96 29 -173 107.5t-120 197.5q-96 256 -24 624zM201 1299.5q-4 41.5 22.5 74.5t68.5 37.5t75 -22.5q10 -8 30 -25q23 -20 33 -29q33 -27 37 -68.5t-21.5 -74.5t-68.5 -38t-76 22q-12 10 -37 30v2q-18 14 -26 21q-33 29 -37 70.5zM630 1316q-5 42 21.5 74.5 t68.5 38t75 -19.5q4 -4 8 -6q2 -2 8 -6l2 -2q27 -18 41 -35q29 -29 43 -64q18 -39 2 -77.5t-55 -56t-78 -2t-55 53.5l-2 3q-4 4 -19 14q-8 6 -10 8q-6 4 -10 8q-35 27 -40 69z" />
<glyph unicode="&#x2000;" horiz-adv-x="885" />
<glyph unicode="&#x2001;" horiz-adv-x="1770" />
<glyph unicode="&#x2002;" horiz-adv-x="885" />
<glyph unicode="&#x2003;" horiz-adv-x="1770" />
<glyph unicode="&#x2004;" horiz-adv-x="590" />
<glyph unicode="&#x2005;" horiz-adv-x="442" />
<glyph unicode="&#x2006;" horiz-adv-x="295" />
<glyph unicode="&#x2007;" horiz-adv-x="295" />
<glyph unicode="&#x2008;" horiz-adv-x="221" />
<glyph unicode="&#x2009;" horiz-adv-x="354" />
<glyph unicode="&#x200a;" horiz-adv-x="98" />
<glyph unicode="&#x2010;" d="M26.5 536q6.5 42 40 68.5t74.5 20.5q68 -8 174 -9q20 2 60 2q66 2 100 3q41 0 72 -31t31 -73t-31 -71.5t-72 -29.5q-31 0 -96 -2q-39 0 -60 -2q-123 0 -204 10q-41 4 -68 38t-20.5 76z" />
<glyph unicode="&#x2011;" d="M26.5 536q6.5 42 40 68.5t74.5 20.5q68 -8 174 -9q20 2 60 2q66 2 100 3q41 0 72 -31t31 -73t-31 -71.5t-72 -29.5q-31 0 -96 -2q-39 0 -60 -2q-123 0 -204 10q-41 4 -68 38t-20.5 76z" />
<glyph unicode="&#x2012;" d="M26.5 536q6.5 42 40 68.5t74.5 20.5q68 -8 174 -9q20 2 60 2q66 2 100 3q41 0 72 -31t31 -73t-31 -71.5t-72 -29.5q-31 0 -96 -2q-39 0 -60 -2q-123 0 -204 10q-41 4 -68 38t-20.5 76z" />
<glyph unicode="&#x2013;" horiz-adv-x="1136" d="M27 536q12 42 74 68.5t138 20.5q126 -8 323 -9q37 2 111 2q122 2 185 3q76 0 133.5 -31t57.5 -73t-57.5 -71.5t-133.5 -29.5q-57 0 -178 -2q-72 0 -111 -2q-228 0 -378 10q-76 4 -126 38t-38 76z" />
<glyph unicode="&#x2014;" horiz-adv-x="2160" d="M30 536q24 42 148 68.5t276 20.5q252 -8 645 -9q74 2 222 2q244 2 370 3q152 0 267 -31t115 -73t-115 -71.5t-267 -29.5q-114 0 -355 -2q-145 0 -223 -2q-455 0 -755 10q-152 4 -252 38t-76 76z" />
<glyph unicode="&#x2018;" horiz-adv-x="653" d="M137 1135q23 68 64 147q25 47 75 133q14 23 19 31q49 84 74 133q18 39 58 53.5t78 -4t52 -58.5t-4 -79q-27 -57 -82 -150q-4 -8 -18 -30q-47 -82 -70 -123q-35 -66 -51 -117q-14 -41 -52 -60.5t-78 -6t-59.5 52.5t-5.5 78z" />
<glyph unicode="&#x2019;" horiz-adv-x="606" d="M105.5 1058q-13.5 40 7.5 79q27 55 77 166l3 6q82 182 133 272q20 37 61 48t78 -9.5t48 -61t-9 -77.5q-45 -82 -125 -256q-2 -4 -2 -6q-51 -115 -82 -175q-18 -37 -58 -50t-79 5.5t-52.5 58.5z" />
<glyph unicode="&#x201c;" horiz-adv-x="1050" d="M197.5 1187q-13.5 40 5.5 77q98 197 231 331q31 29 73 29t72.5 -29.5t31 -72.5t-30.5 -72q-111 -111 -195 -276q-18 -39 -58 -52.5t-78 6t-51.5 59.5zM549 1224q0 42 31 72q39 39 106 142v2q59 88 94 129q27 33 69 37t74.5 -24t37 -69.5t-22.5 -74.5q-29 -33 -80 -111 q0 -2 -2 -2q-37 -57 -59 -88q-37 -49 -72 -86q-31 -31 -73 -31t-72.5 31t-30.5 73z" />
<glyph unicode="&#x201d;" horiz-adv-x="999" d="M167 1088.5q-13 39.5 6.5 78.5t51.5 119q0 2 2 8l2 6q4 8 7 15q35 88 61 137q41 80 90 135q29 33 71 34t73.5 -27.5t34 -70.5t-26.5 -73q-33 -35 -62 -90q-20 -43 -51 -119q-2 -6 -6 -14q0 -2 -2 -8l-2 -7q-37 -90 -60 -137q-18 -37 -58 -50t-79 5.5t-52 58zM490.5 1098 q-11.5 41 9.5 78q27 45 73 135q2 2 2 6q90 168 148 252q23 35 64.5 43t76.5 -15.5t43.5 -64.5t-14.5 -78q-51 -74 -135 -233q-2 -4 -4 -7q-49 -94 -76 -141q-20 -37 -61.5 -47t-78 10.5t-48 61.5z" />
<glyph unicode="&#x202f;" horiz-adv-x="354" />
<glyph unicode="&#x205f;" horiz-adv-x="442" />
<glyph unicode="&#x20ac;" horiz-adv-x="1159" d="M233 762q-4 125 39 272q10 39 45 60q96 199 262 324.5t373 156.5q43 4 77 -20.5t40 -66.5t-19.5 -77t-68.5 -39q-150 -23 -271.5 -114t-197.5 -234q43 0 102 2q16 0 52 2q117 4 176 4q43 0 72.5 -29.5t29.5 -71.5t-29.5 -73t-72.5 -31q-55 0 -168 -4q-35 -2 -53 -2 q-109 -4 -183 -2q-4 -59 4 -114q8 0 21 -3l12 -2h14h9q55 0 166 7q115 6 174 6q43 0 72.5 -31t29.5 -73t-29.5 -71.5t-72.5 -29.5q-53 0 -164 -6q-115 -6 -174 -6q57 -125 187 -207t274 -82q43 0 72.5 -30t29.5 -72t-29.5 -72.5t-72.5 -30.5q-231 0 -429 145.5t-256 362.5v2 l-2 4v2q-2 4 -2 8q-2 6 -4 13q-6 20 -8 39q-2 6 -2 10q-25 84 -25 174z" />
<glyph unicode="&#x25fc;" horiz-adv-x="1013" d="M0 0v1014h1014v-1014h-1014z" />
</font>
</defs>
</svg>
